<svg xmlns="http://www.w3.org/2000/svg" width="200" height="200" version="1.1"><path fill="#582433" d="M0 0 C66 0 132 0 200 0 C200 66 200 132 200 200 C134 200 68 200 0 200 C0 134 0 68 0 0 Z" transform="translate(0,0)"/><path fill="#FB396D" d="M0 0 C8.31607476 6.6136677 13.99603107 14.18526567 17.125 24.375 C17.125 24.705 17.125 25.035 17.125 25.375 C13.06287788 25.52047545 9.00142713 25.60913226 4.9375 25.6875 C3.78701172 25.72939453 2.63652344 25.77128906 1.45117188 25.81445312 C-7.13580599 25.93890208 -7.13580599 25.93890208 -10.98828125 23 C-11.61089844 22.13375 -12.23351562 21.2675 -12.875 20.375 C-18.31894054 16.17862917 -22.87824142 15.69815614 -29.71484375 15.92578125 C-35.82656953 16.79456798 -39.71532957 19.87389369 -43.75 24.375 C-48.07765815 30.48463504 -48.80035794 36.03120191 -47.875 43.375 C-45.77142877 50.50263456 -42.26749648 54.517404 -35.9609375 58.31640625 C-32.13378267 60.25865149 -29.08119799 60.52014526 -24.84301758 60.58032227 C-23.60195755 60.60026749 -22.36089752 60.62021271 -21.08222961 60.64076233 C-19.7279981 60.65774527 -18.37376527 60.67462413 -17.01953125 60.69140625 C-15.63375741 60.71198228 -14.24798975 60.73297892 -12.86222839 60.75437927 C-9.21759047 60.80953301 -5.57289654 60.85897174 -1.92816162 60.90722656 C1.7920835 60.95749056 5.51224743 61.01315104 9.23242188 61.06835938 C16.52988104 61.17585902 23.82740836 61.27682329 31.125 61.375 C31.125 68.635 31.125 75.895 31.125 83.375 C22.57925359 83.46577477 14.03388909 83.53898679 5.4877882 83.58224869 C1.51844903 83.60302399 -2.45054 83.63115443 -6.41967773 83.67675781 C-10.25820489 83.72057889 -14.09639766 83.7442125 -17.93515587 83.75450897 C-19.39143822 83.76183596 -20.84770461 83.77614185 -22.30384254 83.79792023 C-36.5917322 84.00289601 -47.00217869 80.89295261 -57.875 71.375 C-67.71577879 61.23714109 -71.14212117 49.6843667 -71.12158203 35.89233398 C-70.92877757 23.54360469 -66.17746161 13.79243001 -57.875 4.6875 C-42.21852064 -10.32885073 -17.93521787 -12.20385348 0 0 Z" transform="translate(117.875,58.625)"/><path fill="#F9356C" d="M0 0 C11.88 0 23.76 0 36 0 C36 7.59 36 15.18 36 23 C22.47 23 8.94 23 -5 23 C-3.68 20.36 -2.36 17.72 -1 15 C0.63245553 10.62967968 0.63245553 10.62967968 0 0 Z" transform="translate(113,90)"/></svg>