<?xml version="1.0" encoding="UTF-8"?>
<svg version="1.1" xmlns="http://www.w3.org/2000/svg" width="200" height="200">
<path d="M0 0 C66 0 132 0 200 0 C200 66 200 132 200 200 C134 200 68 200 0 200 C0 134 0 68 0 0 Z " fill="#101012" transform="translate(0,0)"/>
<path d="M0 0 C1.36328125 1.44140625 1.36328125 1.44140625 1.6496582 3.7800293 C1.12175379 8.68598502 -2.77762792 11.46327125 -6.13671875 14.81640625 C-6.8328125 15.56535156 -7.52890625 16.31429687 -8.24609375 17.0859375 C-13.39116593 22.27864924 -13.39116593 22.27864924 -16.84326172 22.72973633 C-19.95890844 22.37073324 -22.80147271 21.3853899 -25.76171875 20.37890625 C-36.68244427 17.73679524 -46.23817857 19.07918453 -55.81640625 24.7265625 C-61.17581878 28.35680608 -64.52338922 32.81607563 -67.63671875 38.44140625 C-67.97832031 39.0446875 -68.31992188 39.64796875 -68.671875 40.26953125 C-71.93360662 47.24811983 -71.9229385 56.64395442 -69.95703125 63.9765625 C-69.21473753 65.8110884 -68.4282133 67.62756457 -67.63671875 69.44140625 C-67.0625 72.12890625 -67.0625 72.12890625 -67.63671875 75.44140625 C-69.87933076 78.58482765 -72.55649098 81.1978958 -75.32421875 83.87890625 C-76.04544922 84.62333984 -76.76667969 85.36777344 -77.50976562 86.13476562 C-78.5684082 87.18180664 -78.5684082 87.18180664 -79.6484375 88.25 C-80.29256592 88.88736084 -80.93669434 89.52472168 -81.6003418 90.18139648 C-83.63671875 91.44140625 -83.63671875 91.44140625 -86.2800293 91.26611328 C-91.40001548 89.47440984 -93.37983942 83.0406327 -95.61328125 78.421875 C-101.9707196 63.17044462 -101.13532977 44.40967357 -95.3828125 29.10546875 C-87.01188825 11.36002171 -72.79481156 -0.83705937 -54.65625 -7.68359375 C-36.46329502 -12.95554966 -16.16783647 -9.29893601 0 0 Z " fill="#82838E" transform="translate(142.63671875,45.55859375)"/>
<path d="M0 0 C3.77734375 1.09765625 3.77734375 1.09765625 6.3203125 2.140625 C14.38155975 5.28053847 24.13764385 3.43134348 31.77734375 0.09765625 C34.46875 -0.4765625 34.46875 -0.4765625 37.77734375 0.09765625 C40.89843179 2.34244028 43.49172342 5.02109408 46.15234375 7.78515625 C46.88839844 8.50638672 47.62445313 9.22761719 48.3828125 9.97070312 C53.72496208 15.39709811 53.72496208 15.39709811 53.98291016 18.84692383 C53.91507324 19.58966553 53.84723633 20.33240723 53.77734375 21.09765625 C36.93970347 30.30369074 19.79059542 35.15142925 0.58984375 31.03515625 C-6.20289157 29.03507307 -13.5056418 26.29774533 -19.22265625 22.09765625 C-20.58203125 19.39453125 -20.58203125 19.39453125 -20.22265625 16.09765625 C-18.11733151 12.89641977 -15.51985743 10.3277482 -12.78515625 7.66015625 C-12.08455078 6.91572266 -11.38394531 6.17128906 -10.66210938 5.40429688 C-4.73622577 -0.49978035 -4.73622577 -0.49978035 0 0 Z " fill="#EBEBEB" transform="translate(90.22265625,131.90234375)"/>
<path d="M0 0 C4.24965742 3.18348895 6.88628362 6.27820905 8.875 11.25 C9.80586131 19.16232117 8.79221287 24.2789231 4.375 31.0625 C-0.32188323 35.88985221 -4.0923962 37.63577995 -10.75 38 C-17.13582444 37.77593598 -21.23921131 35.69649793 -25.875 31.375 C-30.46476125 26.17327059 -31.30424882 20.7177722 -31.21484375 13.97265625 C-30.54354706 8.84148041 -27.91987425 5.20990948 -24.125 1.8046875 C-16.93657249 -3.61761773 -7.84465684 -4.9661216 0 0 Z " fill="#FBFBFB" transform="translate(117.875,82.625)"/>
<path d="M0 0 C0.66 0.33 1.32 0.66 2 1 C-3.28 6.28 -8.56 11.56 -14 17 C-14 12.95607032 -12.51908749 11.99868382 -9.8125 9.0625 C-9.03519531 8.20785156 -8.25789063 7.35320313 -7.45703125 6.47265625 C-5.09786332 4.09848566 -2.65532732 2.0327639 0 0 Z " fill="#8D8E99" transform="translate(69,48)"/>
</svg>
