<?xml version="1.0" standalone="no"?>
<!DOCTYPE svg PUBLIC "-//W3C//DTD SVG 20010904//EN"
 "http://www.w3.org/TR/2001/REC-SVG-20010904/DTD/svg10.dtd">
<svg version="1.0" xmlns="http://www.w3.org/2000/svg"
 width="200.000000pt" height="200.000000pt" viewBox="0 0 200.000000 200.000000"
 preserveAspectRatio="xMidYMid meet">

<g transform="translate(0.000000,200.000000) scale(0.100000,-0.100000)"
fill="#000000" stroke="none">
<path d="M0 1000 l0 -1000 1000 0 1000 0 0 1000 0 1000 -1000 0 -1000 0 0
-1000z m1067 684 c167 -80 114 -374 -67 -374 -94 0 -165 83 -165 195 0 140
119 232 232 179z m-307 -488 l-72 -104 65 -93 c35 -52 67 -100 71 -106 5 -10
-8 -13 -57 -13 l-64 0 -64 92 c-35 50 -67 97 -72 104 -4 8 20 53 64 118 l72
106 64 0 64 0 -71 -104z m595 8 c36 -53 69 -102 71 -109 3 -7 -26 -57 -64
-111 l-69 -99 -68 -3 -67 -3 66 95 c36 52 69 102 72 110 3 9 -21 53 -60 109
-36 52 -66 98 -66 101 0 3 27 6 59 6 l59 0 67 -96z m-280 37 c22 -10 48 -27
57 -38 17 -19 17 -20 -13 -43 -31 -22 -33 -22 -61 -5 -39 22 -74 13 -98 -28
-34 -55 -19 -137 30 -162 24 -13 31 -12 63 4 34 18 36 17 66 -1 17 -11 31 -24
31 -28 0 -19 -72 -69 -109 -75 -56 -9 -103 9 -145 55 -78 86 -74 207 9 287 58
56 103 65 170 34z m-5 -437 c0 -4 98 -347 136 -476 5 -16 -2 -18 -53 -18 l-59
0 -38 163 c-34 143 -56 209 -56 167 0 -7 -19 -85 -41 -172 l-42 -158 -53 0
c-30 0 -54 2 -54 5 0 4 115 417 125 448 3 9 7 24 10 32 3 11 20 15 65 15 33 0
60 -3 60 -6z"/>
<path d="M965 1587 c-50 -42 -44 -148 10 -183 80 -52 141 110 69 183 -29 29
-46 29 -79 0z"/>
</g>
</svg>
