<svg xmlns="http://www.w3.org/2000/svg" width="180" height="180" version="1.1"><path fill="#E84242" d="M0 0 C14.25153835 -0.76008205 29.83042859 5.17184507 40.59375 14.25 C42.30368434 15.8722454 43.96722684 17.54413425 45.59375 19.25 C46.42712891 20.09111328 46.42712891 20.09111328 47.27734375 20.94921875 C48.11458984 21.84060547 48.11458984 21.84060547 48.96875 22.75 C49.75378906 23.56984375 49.75378906 23.56984375 50.5546875 24.40625 C51.59375 26.25 51.59375 26.25 51.5703125 28.7578125 C50.26030027 32.10096371 48.68944909 32.86217135 45.59375 34.625 C40.93507997 37.39715131 36.69208247 40.37689101 32.46875 43.76953125 C28.06076847 47.25 28.06076847 47.25 24.71875 47.25 C20.56770671 45.92166615 19.23980479 43.64237794 16.59375 40.25 C12.17969132 36.59263709 7.15938286 36.25 1.59375 36.25 C-3.56509074 37.18028276 -6.46525982 38.87200842 -10.40625 42.25 C-11.06625 42.25 -11.72625 42.25 -12.40625 42.25 C-12.68597656 42.8275 -12.96570313 43.405 -13.25390625 44 C-14.40625 46.25 -14.40625 46.25 -15.58984375 48.1875 C-22.39436 59.37997533 -23.9854638 71.51726763 -21.34375 84.25 C-18.62927062 94.01705198 -13.31480047 102.17599952 -4.40625 107.25 C0.8044393 108.98689643 6.70327572 109.39435159 11.8828125 107.34375 C15.35447259 105.25271149 17.9744688 102.8955325 20.65625 99.875 C23.59375 97.25 23.59375 97.25 26.71875 96.9375 C31.40017652 98.08460451 35.44535812 100.91137818 39.51171875 103.40234375 C43.12236665 105.566902 46.83173259 107.40490113 50.6328125 109.20703125 C52.59375 110.25 52.59375 110.25 54.59375 112.25 C54.39178804 116.92743908 52.08345909 119.5638997 49.15625 123.0625 C48.35316406 124.03832031 47.55007812 125.01414062 46.72265625 126.01953125 C46.02011719 126.75558594 45.31757813 127.49164063 44.59375 128.25 C43.93375 128.25 43.27375 128.25 42.59375 128.25 C42.59375 128.91 42.59375 129.57 42.59375 130.25 C29.04449218 142.75700722 12.53434451 145.90204653 -5.40625 145.25 C-16.30673627 144.60879493 -26.43404808 139.23146794 -35.40625 133.25 C-35.40625 132.59 -35.40625 131.93 -35.40625 131.25 C-35.98632812 131.00378906 -36.56640625 130.75757813 -37.1640625 130.50390625 C-50.61786103 122.98009209 -56.22807044 105.34666566 -60.5546875 91.6015625 C-65.67758722 70.04706689 -60.83601568 46.81910802 -49.40625 28.25 C-40.25030892 14.57554254 -27.15817197 5.480694 -11.19921875 1.4375 C-7.47432006 0.74894363 -3.7634721 0.39101009 0 0 Z" transform="translate(94.40625,17.75)"/><path fill="#EC6161" d="M0 0 C2.92879371 0.62759865 5.36095629 1.58622659 8 3 C8 3.66 8 4.32 8 5 C10.97 5.99 13.94 6.98 17 8 C16.34 8.66 15.68 9.32 15 10 C13.06126858 9.04416032 11.1240567 8.08523808 9.1875 7.125 C8.10855469 6.59132812 7.02960938 6.05765625 5.91796875 5.5078125 C3 4 3 4 0 2 C0 1.34 0 0.68 0 0 Z" transform="translate(59,149)"/><path fill="#ED6666" d="M0 0 C7.05707675 1.85712546 12.99014985 5.99343323 19 10 C15.12049035 10 13.63334507 9.59216239 10.25 8 C9.45078125 7.62875 8.6515625 7.2575 7.828125 6.875 C7.22484375 6.58625 6.6215625 6.2975 6 6 C6 5.34 6 4.68 6 4 C3.03 3.505 3.03 3.505 0 3 C0 2.01 0 1.02 0 0 Z" transform="translate(121,115)"/><path fill="#EC6464" d="M0 0 C3.63536515 1.56769826 6.25520388 3.79973288 9.1875 6.4375 C10.06792969 7.21996094 10.94835937 8.00242187 11.85546875 8.80859375 C14 11 14 11 15 14 C11.87327251 12.62177144 9.84197456 11.03754129 7.5 8.5625 C5.56887619 6.56077596 3.8016159 4.85248362 1.5625 3.1875 C1.046875 2.795625 0.53125 2.40375 0 2 C0 1.34 0 0.68 0 0 Z" transform="translate(128,28)"/><path fill="#EA5555" d="M0 0 C-1 3 -1 3 -3.75 4.4375 C-4.8225 4.953125 -5.895 5.46875 -7 6 C-7.886875 6.7425 -8.77375 7.485 -9.6875 8.25 C-10.450625 8.8275 -11.21375 9.405 -12 10 C-12.99 9.67 -13.98 9.34 -15 9 C-13.58680023 7.87064804 -12.16928595 6.74669374 -10.75 5.625 C-9.96109375 4.99851562 -9.1721875 4.37203125 -8.359375 3.7265625 C-3.26696833 0 -3.26696833 0 0 0 Z" transform="translate(72,24)"/><path fill="#EC6161" d="M0 0 C4.13639336 1.59092052 7.23213248 4.60474918 10 8 C10 8.66 10 9.32 10 10 C5.86360664 8.40907948 2.76786752 5.39525082 0 2 C0 1.34 0 0.68 0 0 Z" transform="translate(49,139)"/><path fill="#EE7070" d="M0 0 C3.3 0 6.6 0 10 0 C9.67 0.99 9.34 1.98 9 3 C6.03 3 3.06 3 0 3 C0 2.01 0 1.02 0 0 Z" transform="translate(92,18)"/><path fill="#EE6E6E" d="M0 0 C0.66 0 1.32 0 2 0 C6.42857143 7.42857143 6.42857143 7.42857143 7 11 C6.34 11 5.68 11 5 11 C3.7109375 9.35546875 3.7109375 9.35546875 2.375 7.1875 C1.92898437 6.47980469 1.48296875 5.77210937 1.0234375 5.04296875 C0 3 0 3 0 0 Z" transform="translate(74,109)"/><path fill="#EC5F5F" d="M0 0 C3.18609925 0.35401103 4.79066678 0.83027036 7.3125 2.875 C9 5 9 5 9 8 C8.34 8 7.68 8 7 8 C5.71569138 6.52304509 4.43419292 5.04193862 3.21875 3.5078125 C1.93215329 1.86186905 1.93215329 1.86186905 0 0 Z" transform="translate(109,56)"/><path fill="#EE7171" d="M0 0 C-1.49920512 3.11373372 -3.08152136 6.12228205 -5 9 C-5.66 9 -6.32 9 -7 9 C-4.4 0 -4.4 0 0 0 Z" transform="translate(82,60)"/><path fill="#EC5F5F" d="M0 0 C-5.75 5 -5.75 5 -8 5 C-8 4.01 -8 3.02 -8 2 C-3.71900826 -1.23966942 -3.71900826 -1.23966942 0 0 Z" transform="translate(135,149)"/><path fill="#EB5B5B" d="M0 0 C0.99 0 1.98 0 3 0 C3.33 2.31 3.66 4.62 4 7 C3.01 7.495 3.01 7.495 2 8 C0.74335022 5.09399739 0 3.20395416 0 0 Z" transform="translate(36,114)"/><path fill="#EE6F6F" d="M0 0 C3.36591866 1.44253657 5.51047079 3.33264727 8 6 C4.06830895 6 2.83572772 4.60580385 0 2 C0 1.34 0 0.68 0 0 Z" transform="translate(128,28)"/><path fill="#ED6868" d="M0 0 C-0.33 0.99 -0.66 1.98 -1 3 C-4.5625 4.1875 -4.5625 4.1875 -8 5 C-8 4.34 -8 3.68 -8 3 C-2.25 0 -2.25 0 0 0 Z" transform="translate(72,24)"/></svg>