<?xml version="1.0" encoding="UTF-8"?>
<svg version="1.1" xmlns="http://www.w3.org/2000/svg" width="600" height="600">
<path d="M0 0 C198 0 396 0 600 0 C600 198 600 396 600 600 C402 600 204 600 0 600 C0 402 0 204 0 0 Z " fill="#1A1A19" transform="translate(0,0)"/>
<path d="M0 0 C24.935625 -0.061875 49.87125 -0.12375 75.5625 -0.1875 C83.39299072 -0.21481201 91.22348145 -0.24212402 99.29125977 -0.27026367 C108.96276855 -0.28381348 108.96276855 -0.28381348 113.51158142 -0.28633118 C116.64230422 -0.28909038 119.77286945 -0.30018659 122.90354919 -0.31672668 C145.76718407 -0.43215749 168.03984173 0.22505012 190.3125 6 C191.31732422 6.2475 192.32214844 6.495 193.35742188 6.75 C210.66875308 11.06939648 210.66875308 11.06939648 218.03125 14.984375 C220.00775741 16.00400184 222.00570928 16.84329485 224.0625 17.6875 C236.61342708 23.25131303 247.48348606 31.30044076 258 40 C258.53375244 40.43296387 259.06750488 40.86592773 259.61743164 41.31201172 C263.95255527 44.85496747 267.41585373 48.72687674 271 53 C271.70253906 53.80308594 272.40507812 54.60617188 273.12890625 55.43359375 C279.40259742 62.77654012 284.32549688 70.58677306 289 79 C289.61875 80.11117187 290.2375 81.22234375 290.875 82.3671875 C305.726499 110.5452548 311.40116014 143.30348142 311.26074219 174.88671875 C311.25006757 177.7319902 311.26067412 180.57662315 311.2734375 183.421875 C311.28567442 198.70620205 310.4043865 213.94447 307.25 228.9375 C307.08443604 229.74614502 306.91887207 230.55479004 306.74829102 231.38793945 C304.74703297 240.75693233 301.9412536 249.88957498 299 259 C298.76120117 259.763125 298.52240234 260.52625 298.27636719 261.3125 C296.6793792 266.30547977 294.76014098 270.95925089 292.375 275.625 C292.02945068 276.30522217 291.68390137 276.98544434 291.32788086 277.6862793 C285.28755194 289.40827992 278.67822613 300.01845053 270 310 C269.35804688 310.80953125 268.71609375 311.6190625 268.0546875 312.453125 C267.45914062 313.19046875 266.86359375 313.9278125 266.25 314.6875 C265.73953125 315.33074219 265.2290625 315.97398437 264.703125 316.63671875 C262.3575229 318.51427639 260.95561902 318.23614482 258 318 C255.93652344 317.16821289 255.93652344 317.16821289 253.859375 315.97265625 C253.05145508 315.51810059 252.24353516 315.06354492 251.41113281 314.59521484 C250.53295898 314.08941895 249.65478516 313.58362305 248.75 313.0625 C237.97246681 307.00318129 227.02426397 301.32939737 216.00085449 295.73318481 C213.87923858 294.65584486 211.75986484 293.57419174 209.640625 292.4921875 C208.99887329 292.16869827 208.35712158 291.84520905 207.69592285 291.51191711 C201.49693319 288.34171962 201.49693319 288.34171962 200.375 285.3125 C199.86933489 282.1942318 199.93937528 279.15248536 200 276 C200.61875 275.7525 201.2375 275.505 201.875 275.25 C204.44501112 273.73822876 204.68834894 272.6279866 206 270 C207.18324305 268.54177794 208.39483179 267.10635935 209.625 265.6875 C233.1214628 236.52975177 235.74365151 193.94402622 232.17797852 158.18457031 C229.48488858 134.71852812 222.76533737 112.13980149 207 94 C206.31550781 93.20464844 205.63101563 92.40929687 204.92578125 91.58984375 C188.57489849 73.96957637 165.91618044 68.04403184 143 64 C109.835 63.505 109.835 63.505 76 63 C76 107.88 76 152.76 76 199 C71.71 200.98 67.42 202.96 63 205 C61.72125 205.639375 60.4425 206.27875 59.125 206.9375 C54.34627828 208.56226538 50.93385159 207.84336808 46.41308594 205.87182617 C43.3477539 204.34412785 40.32766188 202.74947 37.3125 201.125 C36.21848877 200.54580811 35.12447754 199.96661621 33.99731445 199.36987305 C24.57253204 194.36169646 15.20988087 189.23707121 5.89331055 184.03051758 C3.95313723 182.97449288 1.97574506 181.98787253 0 181 C0 121.27 0 61.54 0 0 Z " fill="#FDFDFD" transform="translate(144,141)"/>
<path d="M0 0 C2.26423485 11.41393074 4.0331238 22.84140644 5.5625 34.375 C7.22855588 47.14275098 7.22855588 47.14275098 9.55102539 59.80322266 C10.34265694 63.6765781 10.8770803 67.58771044 11.4375 71.5 C12.54764168 79.10746017 13.75374797 86.69175427 15.08569336 94.26367188 C15.65786327 97.58679167 16 100.61346489 16 104 C12.02269928 102.48921001 8.28508754 100.67458234 4.50390625 98.7265625 C3.88287521 98.40697571 3.26184418 98.08738892 2.62199402 97.75811768 C0.60073141 96.71649158 -1.41850945 95.67102248 -3.4375 94.625 C-4.1325061 94.2658551 -4.82751221 93.90671021 -5.5435791 93.53668213 C-15.04114583 88.62697853 -24.47322405 83.61589815 -33.83374023 78.44873047 C-41.15661935 74.42043029 -48.56907314 70.57384517 -56 66.75 C-64.1267404 62.56684406 -72.16097792 58.309365 -80.0390625 53.67578125 C-84.17689173 51.33392275 -88.45314554 49.31420371 -92.76953125 47.32421875 C-95 46 -95 46 -96 43 C-94.51113281 42.36384766 -94.51113281 42.36384766 -92.9921875 41.71484375 C-91.61970081 41.12260634 -90.24731031 40.53014598 -88.875 39.9375 C-88.22917969 39.66228516 -87.58335937 39.38707031 -86.91796875 39.10351562 C-82.33538797 37.11773062 -77.87153919 34.94832424 -73.4140625 32.6953125 C-65.87408702 28.88636556 -58.20393427 25.39960353 -50.5 21.9375 C-47.61092129 20.63514611 -44.72303969 19.33016689 -41.8359375 18.0234375 C-41.10817108 17.69406693 -40.38040466 17.36469635 -39.63058472 17.02534485 C-34.49730068 14.69556255 -29.38761238 12.31882163 -24.2890625 9.9140625 C-23.59588928 9.5876326 -22.90271606 9.2612027 -22.1885376 8.92488098 C-18.8740191 7.36292996 -15.56283229 5.79441405 -12.25585938 4.21655273 C-11.08087891 3.66169189 -9.90589844 3.10683105 -8.6953125 2.53515625 C-7.66422363 2.044104 -6.63313477 1.55305176 -5.57080078 1.04711914 C-3 0 -3 0 0 0 Z " fill="#ECD10B" transform="translate(312,315)"/>
</svg>
