<svg xmlns="http://www.w3.org/2000/svg" width="400" height="400" version="1.1"><path fill="#092D1F" d="M0 0 C132 0 264 0 400 0 C400 132 400 264 400 400 C268 400 136 400 0 400 C0 268 0 136 0 0 Z" transform="translate(0,0)"/><path fill="#FCFDFD" d="M0 0 C14.19 0 28.38 0 43 0 C43 66 43 132 43 200 C24.92085083 203.14419986 8.91059586 205.18712127 -9.07470703 205.18530273 C-11.49659626 205.18749692 -13.91803402 205.20575403 -16.33984375 205.22460938 C-36.24945662 205.29738019 -58.42490368 202.28063611 -73.58935547 188.0390625 C-86.56469239 175.03228655 -93.27057387 158.92568859 -93.46777344 140.51147461 C-93.4577832 139.43518799 -93.44779297 138.35890137 -93.4375 137.25 C-93.43137695 136.11763916 -93.42525391 134.98527832 -93.41894531 133.81860352 C-93.1901193 121.47520016 -90.89209602 109.97506618 -85 99 C-84.38898438 97.80697266 -84.38898438 97.80697266 -83.765625 96.58984375 C-74.98309338 80.62833264 -60.14153921 71.04853552 -43 66 C-41.21142578 65.44505859 -41.21142578 65.44505859 -39.38671875 64.87890625 C-33.68635606 63.49177696 -27.89275541 63.74945228 -22.0625 63.8125 C-20.93392578 63.81314453 -19.80535156 63.81378906 -18.64257812 63.81445312 C-12.28427714 63.84774266 -6.37917751 64.2912025 0 65 C0 43.55 0 22.1 0 0 Z" transform="translate(174,80)"/><path fill="#F9FBFA" d="M0 0 C14.52 0 29.04 0 44 0 C44.0455253 14.52782516 44.08220585 29.05560455 44.10362434 43.5834856 C44.11384315 50.33229674 44.12798 57.0810526 44.15087891 63.82983398 C44.17291178 70.36568894 44.18463143 76.90149437 44.18975449 83.43738365 C44.19339648 85.90751613 44.2005045 88.37764648 44.21146011 90.84775734 C44.26660558 103.81945886 44.04269111 116.71191206 43.12451172 129.6550293 C43.04837206 130.7576476 42.9722324 131.8602659 42.89378548 132.99629688 C41.39984546 151.94603951 34.81950208 169.59121739 21 183 C20.07960938 183.93392578 20.07960938 183.93392578 19.140625 184.88671875 C15.11385565 188.71559132 10.60873747 191.69045591 5.875 194.5625 C5.28887939 194.93391113 4.70275879 195.30532227 4.09887695 195.68798828 C1.17075045 197.38467514 -0.50838975 198.09017308 -3.875 197.47265625 C-4.90625 196.98667969 -5.9375 196.50070312 -7 196 C-7.65726074 195.70520752 -8.31452148 195.41041504 -8.99169922 195.10668945 C-11.3025496 194.061624 -13.5890731 192.97346259 -15.875 191.875 C-16.69911377 191.4819165 -17.52322754 191.08883301 -18.37231445 190.68383789 C-26.29798606 186.88860644 -34.16000147 182.96866132 -42 179 C-39.08299161 176.68815186 -36.11971868 174.94894639 -32.8125 173.25 C-19.23958608 165.91231285 -9.52132573 156.20421823 -4.83984375 141.30859375 C-1.83722696 130.71336437 -0.85138501 120.8491373 -0.79467773 109.89257812 C-0.78477814 108.7014743 -0.77487854 107.51037048 -0.76467896 106.28317261 C-0.73863205 103.03996052 -0.71671266 99.79675299 -0.69667697 96.55349922 C-0.6746935 93.15555399 -0.64736574 89.7576517 -0.62062073 86.35974121 C-0.57085994 79.93557475 -0.52586004 73.51138424 -0.48259836 67.08717108 C-0.43308328 59.76907952 -0.37821843 52.45103107 -0.32291877 45.1329813 C-0.20935403 30.08869307 -0.10316628 15.04436381 0 0 Z" transform="translate(242,146)"/><path fill="#0D2F22" d="M0 0 C0.76699219 -0.01417969 1.53398437 -0.02835938 2.32421875 -0.04296875 C6.70401495 0.29481945 11.00500255 1.32600051 15.3125 2.1875 C15.3125 25.2875 15.3125 48.3875 15.3125 72.1875 C4.05173051 74.06429491 -8.44052048 75.08279751 -18.6875 69.1875 C-26.98846397 63.12627783 -31.88113203 56.36997152 -33.6875 46.1875 C-33.92220992 43.14409472 -33.98656975 40.11428947 -34 37.0625 C-34.00539795 36.31073486 -34.0107959 35.55896973 -34.01635742 34.78442383 C-33.88078423 24.01755429 -30.43744666 15.15335333 -22.9375 7.3125 C-15.98227744 2.76485448 -8.3437079 0.06895626 0 0 Z" transform="translate(158.6875,177.8125)"/><path fill="#F4F6F6" d="M0 0 C14.52 0 29.04 0 44 0 C44.020625 7.239375 44.04125 14.47875 44.0625 21.9375 C44.071604 24.22550537 44.08070801 26.51351074 44.09008789 28.87084961 C44.09300695 30.67301372 44.09555553 32.4751785 44.09765625 34.27734375 C44.10277222 35.22226685 44.10788818 36.16718994 44.11315918 37.14074707 C44.11334045 38.48054626 44.11334045 38.48054626 44.11352539 39.84741211 C44.115746 40.62684677 44.11796661 41.40628143 44.12025452 42.20933533 C44 44 44 44 43 45 C41.64905018 45.09268999 40.29332909 45.11747326 38.93920898 45.11352539 C38.06631226 45.11340454 37.19341553 45.11328369 36.29406738 45.11315918 C34.90907043 45.10548523 34.90907043 45.10548523 33.49609375 45.09765625 C32.6517981 45.09664917 31.80750244 45.09564209 30.93762207 45.09460449 C27.77090098 45.0893557 24.60419919 45.07539456 21.4375 45.0625 C14.363125 45.041875 7.28875 45.02125 0 45 C0 30.15 0 15.3 0 0 Z" transform="translate(242,80)"/><path fill="#3E514A" d="M0 0 C11.55 0.33 23.1 0.66 35 1 C35 1.33 35 1.66 35 2 C33.72382813 2.06058594 32.44765625 2.12117188 31.1328125 2.18359375 C29.46352984 2.26799568 27.79425963 2.35264386 26.125 2.4375 C25.28324219 2.47681641 24.44148438 2.51613281 23.57421875 2.55664062 C22.76855469 2.59853516 21.96289062 2.64042969 21.1328125 2.68359375 C20.38918457 2.72025146 19.64555664 2.75690918 18.87939453 2.79467773 C16.91135688 2.89955865 16.91135688 2.89955865 15 4 C13.046875 3.66015625 13.046875 3.66015625 10.75 3.0625 C7.07934926 2.17893464 3.7952787 1.80537032 0 2 C0 1.34 0 0.68 0 0 Z" transform="translate(137,284)"/><path fill="#263930" d="M0 0 C0 0.66 0 1.32 0 2 C-5.94 2 -11.88 2 -18 2 C-18.33 1.34 -18.66 0.68 -19 0 C-12.92336881 -1.62043498 -6.05067242 -1.76070375 0 0 Z" transform="translate(168,179)"/><path fill="#2F443D" d="M0 0 C0.33 0 0.66 0 1 0 C2.125 6.625 2.125 6.625 1 10 C0.98083302 11.43752318 1.00543624 12.87598199 1.0625 14.3125 C1.12040949 18.25034526 0.50950809 21.32057403 -1 25 C-1.33 25 -1.66 25 -2 25 C-1.8608331 21.58302762 -1.71250415 18.16651243 -1.5625 14.75 C-1.52318359 13.78191406 -1.48386719 12.81382812 -1.44335938 11.81640625 C-1.40146484 10.88183594 -1.35957031 9.94726562 -1.31640625 8.984375 C-1.27974854 8.12553711 -1.24309082 7.26669922 -1.20532227 6.38183594 C-1.01296486 4.15039857 -0.61153756 2.15017476 0 0 Z" transform="translate(286,257)"/><path fill="#DCE4E1" d="M0 0 C-3.19990508 2.74277578 -6.00499382 4.6302836 -10 6 C-10.33 5.34 -10.66 4.68 -11 4 C-11.99 3.34 -12.98 2.68 -14 2 C-12.42085985 1.46658816 -10.83645613 0.94874237 -9.25 0.4375 C-8.36828125 0.14746094 -7.4865625 -0.14257812 -6.578125 -0.44140625 C-3.92165684 -1.01697435 -2.52968894 -0.89248371 0 0 Z" transform="translate(138,146)"/><path fill="#20362D" d="M0 0 C3.63 1.65 7.26 3.3 11 5 C7 7 7 7 3.875 6.25 C1 5 1 5 -1 3 C-0.67 2.01 -0.34 1.02 0 0 Z" transform="translate(106,272)"/><path fill="#233A31" d="M0 0 C-1.66215268 1.33895632 -3.32963607 2.67130142 -5 4 C-6.0828125 4.86625 -6.0828125 4.86625 -7.1875 5.75 C-9 7 -9 7 -11 7 C-11.33 5.02 -11.66 3.04 -12 1 C-10.02 1.99 -10.02 1.99 -8 3 C-7.608125 2.505 -7.21625 2.01 -6.8125 1.5 C-4.44908285 -0.45593143 -2.98564997 -0.24207973 0 0 Z" transform="translate(116,152)"/><path fill="#E6ECEA" d="M0 0 C-0.66 1.98 -1.32 3.96 -2 6 C-4.875 6.625 -4.875 6.625 -8 7 C-8.66 6.34 -9.32 5.68 -10 5 C-8.71186658 4.16121545 -7.41936744 3.32913217 -6.125 2.5 C-5.40570313 2.0359375 -4.68640625 1.571875 -3.9453125 1.09375 C-2 0 -2 0 0 0 Z" transform="translate(119,151)"/><path fill="#D8E1DC" d="M0 0 C0.66 0 1.32 0 2 0 C2 0.66 2 1.32 2 2 C2.99 2.33 3.98 2.66 5 3 C2.375 4.625 2.375 4.625 -1 6 C-4.375 5.1875 -4.375 5.1875 -7 4 C-4 2 -4 2 -1 2 C-0.67 1.34 -0.34 0.68 0 0 Z" transform="translate(242,338)"/><path fill="#D6E1DD" d="M0 0 C0.66 1.32 1.32 2.64 2 4 C-1.3 6.97 -4.6 9.94 -8 13 C-8.66 12.67 -9.32 12.34 -10 12 C-9.52949219 11.55269531 -9.05898437 11.10539062 -8.57421875 10.64453125 C-5.14923351 7.31882095 -2.21128342 4.29249134 0 0 Z" transform="translate(232,299)"/><path fill="#33453D" d="M0 0 C2.0234375 3.765625 2.0234375 3.765625 1.8125 5.875 C0.73610353 8.69019077 -0.60470301 11.33073619 -2 14 C-3.25127906 10.45332822 -2.72285053 8.27746562 -1.5625 4.75 C-1.27503906 3.85796875 -0.98757813 2.9659375 -0.69140625 2.046875 C-0.46324219 1.37140625 -0.23507812 0.6959375 0 0 Z" transform="translate(283,288)"/><path fill="#1B352A" d="M0 0 C1.5 1.3125 1.5 1.3125 3 3 C3 3.99 3 4.98 3 6 C0 7 0 7 -3 6 C-1.125 1.125 -1.125 1.125 0 0 Z" transform="translate(132,190)"/><path fill="#173327" d="M0 0 C1.65 0.33 3.3 0.66 5 1 C4.67 3.31 4.34 5.62 4 8 C3.67 7.01 3.34 6.02 3 5 C2.34 5 1.68 5 1 5 C1 4.34 1 3.68 1 3 C0.01 2.67 -0.98 2.34 -2 2 C-1.34 2 -0.68 2 0 2 C0 1.34 0 0.68 0 0 Z" transform="translate(168,179)"/><path fill="#E8EDEC" d="M0 0 C1.32 1.32 2.64 2.64 4 4 C3.34 5.32 2.68 6.64 2 8 C0.68 7.67 -0.64 7.34 -2 7 C-1.34 4.69 -0.68 2.38 0 0 Z" transform="translate(132,240)"/><path fill="#1C3329" d="M0 0 C0.66 0.33 1.32 0.66 2 1 C0.35 3.64 -1.3 6.28 -3 9 C-3.66 8.01 -4.32 7.02 -5 6 C-4.67 5.01 -4.34 4.02 -4 3 C-3.34 3 -2.68 3 -2 3 C-2 2.34 -2 1.68 -2 1 C-1.34 0.67 -0.68 0.34 0 0 Z" transform="translate(94,168)"/><path fill="#E2EAE7" d="M0 0 C0.66 0.33 1.32 0.66 2 1 C1.67 1.66 1.34 2.32 1 3 C0.7525 3.680625 0.505 4.36125 0.25 5.0625 C-1 7 -1 7 -3.625 7.75 C-4.800625 7.87375 -4.800625 7.87375 -6 8 C-4.26440562 4.942048 -2.61527381 2.36620011 0 0 Z" transform="translate(100,164)"/><path fill="#E0EAE7" d="M0 0 C1.32 0 2.64 0 4 0 C4.33 1.65 4.66 3.3 5 5 C2.69 4.01 0.38 3.02 -2 2 C-1.34 1.34 -0.68 0.68 0 0 Z" transform="translate(217,330)"/><path fill="#1B352C" d="M0 0 C0.66 0 1.32 0 2 0 C0.25 7.75 0.25 7.75 -2 10 C-3.125 6.25 -3.125 6.25 -2 4 C-1.34 4 -0.68 4 0 4 C0 2.68 0 1.36 0 0 Z" transform="translate(236,285)"/><path fill="#EFF4F1" d="M0 0 C1.32 0.33 2.64 0.66 4 1 C4 1.66 4 2.32 4 3 C4.99 3.33 5.98 3.66 7 4 C6.67 4.99 6.34 5.98 6 7 C1.125 2.25 1.125 2.25 0 0 Z" transform="translate(92,257)"/><path fill="#2E433C" d="M0 0 C2.31 1.98 4.62 3.96 7 6 C6.01 6.33 5.02 6.66 4 7 C2 5.1875 2 5.1875 0 3 C0 2.01 0 1.02 0 0 Z" transform="translate(96,263)"/><path fill="#1B3328" d="M0 0 C2.125 0.375 2.125 0.375 4 1 C3.34 2.65 2.68 4.3 2 6 C0.68 4.68 -0.64 3.36 -2 2 C-1.34 1.34 -0.68 0.68 0 0 Z" transform="translate(131,234)"/><path fill="#273C35" d="M0 0 C0.33 0 0.66 0 1 0 C1.92470553 4.71599818 2.22923777 7.67265609 0 12 C-0.33 12 -0.66 12 -1 12 C-1.14285714 3.42857143 -1.14285714 3.42857143 0 0 Z" transform="translate(286,257)"/><path fill="#C1CDC7" d="M0 0 C-0.33 1.65 -0.66 3.3 -1 5 C-3.475 4.01 -3.475 4.01 -6 3 C-2.25 0 -2.25 0 0 0 Z" transform="translate(206,322)"/></svg>