<svg width="148" height="24" viewBox="0 0 148 24" fill="none"
    xmlns="http://www.w3.org/2000/svg">
    <path fill-rule="evenodd" clip-rule="evenodd" d="M2.43762 23.5036C1.09136 23.5036 0 22.4122 0 21.0659V7.31287C0 3.27409 3.27408 0 7.31287 0H12.474C13.6624 0 14.6257 0.963364 14.6257 2.15173C14.6257 3.3401 13.6624 4.30347 12.474 4.30347H9.75049C7.05797 4.30347 4.87524 6.48619 4.87524 9.17871V10.0966V14.367V21.0659C4.87524 22.4122 3.78388 23.5036 2.43762 23.5036ZM25.7193 24C24.3968 24 23.1752 23.7683 22.0545 23.3048C20.9337 22.8414 19.9587 22.1959 19.1293 21.3683C18.3 20.5407 17.6555 19.5641 17.196 18.4386C16.7365 17.3131 16.5068 16.0883 16.5068 14.7641C16.5068 13.44 16.7421 12.2207 17.2128 11.1062C17.6836 9.99167 18.3392 9.01512 19.1798 8.17649C20.0203 7.33786 21.0066 6.68683 22.1385 6.22338C23.2705 5.75993 24.5089 5.52821 25.8538 5.52821C27.1763 5.52821 28.3979 5.75993 29.5186 6.22338C30.6394 6.68683 31.6144 7.33235 32.4438 8.15994C33.2731 8.98754 33.9176 9.95856 34.3771 11.0731C34.8366 12.1876 35.0663 13.4069 35.0663 14.731C35.0663 16.0552 34.831 17.28 34.3603 18.4055C33.8895 19.531 33.2339 20.5131 32.3933 21.3517C31.5528 22.1904 30.5665 22.8414 29.4346 23.3048C28.3026 23.7683 27.0642 24 25.7193 24ZM28.0729 19.1668C27.4005 19.6082 26.6384 19.8289 25.7866 19.8289C24.9348 19.8289 24.1727 19.6082 23.5003 19.1668C22.8278 18.7254 22.2955 18.124 21.9032 17.3627C21.5109 16.6013 21.3148 15.7351 21.3148 14.764C21.3148 13.793 21.5109 12.9268 21.9032 12.1654C22.2955 11.404 22.8278 10.8026 23.5003 10.3612C24.1727 9.91986 24.9348 9.69917 25.7866 9.69917C26.6384 9.69917 27.4005 9.91986 28.0729 10.3612C28.7454 10.8026 29.2777 11.404 29.67 12.1654C30.0622 12.9268 30.2584 13.793 30.2584 14.764C30.2584 15.7351 30.0622 16.6013 29.67 17.3627C29.2777 18.124 28.7454 18.7254 28.0729 19.1668ZM46.1264 23.9999C44.5125 23.9999 43.106 23.6634 41.9068 22.9903C40.7076 22.3172 39.7774 21.3572 39.1161 20.1103C38.4549 18.8633 38.1243 17.3902 38.1243 15.6909V8.37824C38.1243 7.0784 39.178 6.02467 40.4778 6.02467C41.7777 6.02467 42.8314 7.0784 42.8314 8.37824V15.7902C42.8314 17.0482 43.134 18.0358 43.7392 18.753C44.3444 19.4703 45.1625 19.8289 46.1936 19.8289C47.2247 19.8289 48.0429 19.4703 48.6481 18.753C49.2533 18.0358 49.5559 17.0482 49.5559 15.7902V8.37824C49.5559 7.0784 50.6096 6.02467 51.9094 6.02467C53.2093 6.02467 54.263 7.0784 54.263 8.37824V15.6909C54.263 16.9489 54.0725 18.0854 53.6914 19.1006C53.3104 20.1158 52.7612 20.9875 52.0439 21.7158C51.3266 22.4441 50.4693 23.0068 49.4718 23.4041C48.4743 23.8013 47.3592 23.9999 46.1264 23.9999ZM57.9933 21.1499C57.9933 22.4497 59.047 23.5035 60.3469 23.5035C61.6467 23.5035 62.7004 22.4497 62.7004 21.1499V13.4731C62.7004 12.7448 62.8573 12.0938 63.1711 11.52C63.4849 10.9462 63.9108 10.4993 64.4488 10.1793C64.9867 9.85926 65.6144 9.69926 66.3316 9.69926C67.3179 9.69926 68.0912 10.0468 68.6516 10.742C69.212 11.4372 69.4921 12.3917 69.4921 13.6055V21.1499C69.4921 22.4497 70.5459 23.5035 71.8457 23.5035C73.1455 23.5035 74.1993 22.4497 74.1993 21.1499V13.0096C74.1993 11.4868 73.9303 10.1627 73.3923 9.03719C72.8544 7.91166 72.0979 7.04546 71.1228 6.43855C70.1478 5.83165 69.0102 5.52821 67.7102 5.52821C66.5446 5.52821 65.5079 5.77648 64.6001 6.27304C64.2319 6.47444 63.8959 6.70397 63.5923 6.96165C63.1836 7.3084 62.3933 7.07524 62.3614 6.54026C62.3441 6.25071 62.1042 6.02476 61.8142 6.02476H60.2267C58.9932 6.02476 57.9933 7.02467 57.9933 8.25813V21.1499ZM85.1248 24C83.8919 24 82.8328 23.7627 81.9474 23.2883C81.062 22.8138 80.3784 22.1241 79.8965 21.2193C79.4146 20.3144 79.1736 19.211 79.1736 17.9089V11.2784C79.1736 10.4428 78.4962 9.76544 77.6606 9.76544C76.825 9.76544 76.1476 9.08804 76.1476 8.25243V7.53774C76.1476 6.70213 76.825 6.02473 77.6606 6.02473C78.4962 6.02473 79.1736 5.34734 79.1736 4.51173V2.41965C79.1736 1.11981 80.2273 0.0660858 81.5272 0.0660858C82.827 0.0660858 83.8807 1.11981 83.8807 2.41965V3.60392C83.8807 4.9409 84.9646 6.02473 86.3015 6.02473H86.852C87.885 6.02473 88.7224 6.86212 88.7224 7.89509C88.7224 8.92805 87.885 9.76544 86.852 9.76544H86.3015C84.9646 9.76544 83.8807 10.8493 83.8807 12.1863V17.3462C83.8807 18.1848 84.06 18.8303 84.4187 19.2827C84.7773 19.7351 85.3265 19.9613 86.0662 19.9613C86.4472 19.9613 86.8563 19.9062 87.2934 19.7958C87.9679 19.6255 88.7042 19.9857 88.8677 20.6619L89.0752 21.5197C89.2655 22.3067 88.9299 23.1454 88.175 23.4383C87.9399 23.5295 87.6964 23.6119 87.4447 23.6855C86.7274 23.8952 85.9541 24 85.1248 24ZM94.9408 23.6028C95.7029 23.8676 96.5434 24 97.4624 24C98.6953 24 99.7599 23.7628 100.657 23.2883C101.029 23.0912 101.365 22.8703 101.664 22.6257C102.047 22.312 102.778 22.5319 102.811 23.0262C102.828 23.2947 103.051 23.5035 103.32 23.5035H104.875C106.073 23.5035 107.045 22.5318 107.045 21.3333V12.9103C107.045 11.8068 106.86 10.8082 106.49 9.91443C106.12 9.02063 105.593 8.2427 104.91 7.58063C104.226 6.91855 103.414 6.41097 102.472 6.05786C101.531 5.70476 100.488 5.52821 99.3453 5.52821C98.1124 5.52821 96.9693 5.73786 95.9158 6.15717C94.8623 6.57649 93.9713 7.16683 93.2428 7.92822C93.076 8.10258 92.9218 8.2836 92.7802 8.47127C92.0049 9.4992 92.8347 10.8007 94.098 11.0495C95.1492 11.2565 96.1626 10.5952 97.0677 10.0045L97.1596 9.94461C97.1927 9.92304 97.2264 9.90195 97.2607 9.88133C97.8659 9.51719 98.5383 9.33512 99.278 9.33512C100.264 9.33512 101.043 9.64408 101.615 10.262C102.186 10.88 102.472 11.6855 102.472 12.6786C102.472 13.1728 101.975 13.5142 101.5 13.3768C101.184 13.2853 100.863 13.207 100.539 13.142C99.8776 13.0096 99.1772 12.9434 98.4375 12.9434C96.9805 12.9434 95.7029 13.1807 94.6045 13.6551C93.5062 14.1296 92.6544 14.7862 92.0492 15.6248C91.444 16.4634 91.1414 17.4345 91.1414 18.5379C91.1414 19.3324 91.2983 20.0607 91.6121 20.7228C91.9259 21.3848 92.3686 21.9641 92.9402 22.4607C93.5118 22.9573 94.1786 23.3379 94.9408 23.6028ZM95.7813 18.3063C95.7813 18.9242 96.0391 19.4318 96.5546 19.829C97.0702 20.2263 97.7538 20.4249 98.6056 20.4249C99.3453 20.4249 100.007 20.2704 100.589 19.9614C101.172 19.6525 101.632 19.2277 101.968 18.687C102.304 18.1463 102.472 17.5449 102.472 16.8828C102.472 16.7828 102.412 16.6925 102.318 16.6569C101.87 16.486 101.394 16.3461 100.892 16.2373C100.332 16.1159 99.7712 16.0552 99.2108 16.0552C98.1573 16.0552 97.3223 16.2594 96.7059 16.6676C96.0895 17.0759 95.7813 17.6221 95.7813 18.3063ZM110.775 21.1499C110.775 22.4497 111.829 23.5035 113.129 23.5035C114.429 23.5035 115.482 22.4497 115.482 21.1499V13.4731C115.482 12.7448 115.639 12.0938 115.953 11.52C116.267 10.9462 116.693 10.4993 117.231 10.1793C117.769 9.85926 118.396 9.69926 119.113 9.69926C120.1 9.69926 120.873 10.0468 121.433 10.742C121.994 11.4372 122.274 12.3917 122.274 13.6055V21.1499C122.274 22.4497 123.328 23.5035 124.628 23.5035C125.927 23.5035 126.981 22.4497 126.981 21.1499V13.0096C126.981 11.4868 126.712 10.1627 126.174 9.03719C125.636 7.91166 124.88 7.04546 123.905 6.43855C122.93 5.83165 121.792 5.52821 120.492 5.52821C119.326 5.52821 118.29 5.77648 117.382 6.27304C117.014 6.47444 116.678 6.70397 116.374 6.96165C115.965 7.3084 115.175 7.07524 115.143 6.54026C115.126 6.25071 114.886 6.02476 114.596 6.02476H113.009C111.775 6.02476 110.775 7.02467 110.775 8.25813V21.1499ZM139.117 24C137.794 24 136.578 23.7738 135.469 23.3214C134.359 22.869 133.401 22.229 132.594 21.4014C131.787 20.5738 131.16 19.5917 130.711 18.4552C130.263 17.3186 130.039 16.0772 130.039 14.731C130.039 13.4289 130.263 12.2151 130.711 11.0896C131.16 9.96408 131.782 8.98754 132.577 8.15994C133.373 7.33235 134.309 6.68683 135.385 6.22338C136.461 5.75993 137.626 5.52821 138.882 5.52821C140.182 5.52821 141.364 5.74889 142.429 6.19028C143.493 6.63166 144.407 7.26062 145.169 8.07718C145.931 8.89374 146.52 9.86477 146.934 10.9903C147.349 12.1158 147.556 13.3738 147.556 14.7641C147.556 15.404 147.037 15.9227 146.398 15.9227H138.261C136.449 15.9227 134.958 17.7231 136.259 18.9848C137.021 19.7241 137.985 20.0938 139.151 20.0938C139.958 20.0938 140.692 19.9062 141.353 19.531C141.49 19.453 141.623 19.3678 141.75 19.2754C142.631 18.637 143.714 18.1391 144.751 18.4658C146.063 18.8792 146.761 20.3721 145.809 21.3643C145.67 21.5087 145.524 21.648 145.371 21.7821C144.564 22.4883 143.622 23.0345 142.546 23.4207C141.471 23.8069 140.327 24 139.117 24ZM136.276 10.0966C136.982 9.43449 137.851 9.10345 138.882 9.10345C139.89 9.10345 140.737 9.43449 141.42 10.0966C142.576 11.2156 141.261 12.8111 139.653 12.8111H137.984C136.376 12.8111 135.103 11.1967 136.276 10.0966Z" fill="#333333"/>
    <ellipse cx="9.97323" cy="11.8824" rx="3.00399" ry="2.94119" fill="#0887FF"/>
</svg>
