<svg xmlns="http://www.w3.org/2000/svg" width="200" height="200" version="1.1"><path fill="#FDFEFE" d="M0 0 C66 0 132 0 200 0 C200 66 200 132 200 200 C134 200 68 200 0 200 C0 134 0 68 0 0 Z" transform="translate(0,0)"/><path fill="#0987FD" d="M0 0 C1.30365551 1.08998583 2.59459989 2.19528814 3.875 3.3125 C4.84308594 4.08464844 5.81117188 4.85679688 6.80859375 5.65234375 C20.68158978 17.23273157 28.49171072 35.76655993 30.875 53.3125 C32.42772717 75.4687223 28.14044599 95.7980297 13.5 113.1875 C-2.27000022 131.14058706 -22.25069163 141.01887627 -46.14453125 142.63671875 C-68.24449512 143.26566767 -88.53189246 134.10899863 -104.6875 119.1875 C-113.82236659 109.48170425 -120.01371154 98.91773754 -124.125 86.3125 C-124.46402344 85.29027344 -124.80304688 84.26804687 -125.15234375 83.21484375 C-130.83082056 62.93456941 -127.04429051 42.09536804 -117.2109375 23.88671875 C-114.62079084 19.31862012 -111.57335303 15.26454504 -108.125 11.3125 C-106.96871094 9.86037109 -106.96871094 9.86037109 -105.7890625 8.37890625 C-80.04471897 -22.47371044 -30.60035266 -23.47564744 0 0 Z" transform="translate(148.125,34.6875)"/><path fill="#F3FBFD" d="M0 0 C1.175625 -0.02449219 2.35125 -0.04898438 3.5625 -0.07421875 C5.2640625 -0.08001953 5.2640625 -0.08001953 7 -0.0859375 C8.546875 -0.09826416 8.546875 -0.09826416 10.125 -0.11083984 C13.76203217 0.50377412 15.42645334 1.77067762 18 4.375 C18.625 7.875 18.625 7.875 18 11.375 C15.74456938 14.1432548 13.87297137 15.24040089 10.33984375 15.78515625 C7.1181762 15.99366519 3.91557611 16.08349347 0.6875 16.125 C-0.43462891 16.15464844 -1.55675781 16.18429688 -2.71289062 16.21484375 C-5.47533207 16.28537417 -8.23693774 16.33815493 -11 16.375 C-11 17.035 -11 17.695 -11 18.375 C-11.66 18.375 -12.32 18.375 -13 18.375 C-13.93492201 21.54784418 -14.12956191 24.40468597 -14.1418457 27.70678711 C-14.14888016 28.77146713 -14.15591461 29.83614716 -14.16316223 30.93309021 C-14.16732651 32.07794388 -14.17149078 33.22279755 -14.17578125 34.40234375 C-14.19897254 36.8274827 -14.22308959 39.25261295 -14.24804688 41.67773438 C-14.28320954 45.5006296 -14.31253749 49.32320268 -14.32592773 53.14624023 C-14.3413807 56.83617007 -14.38156661 60.52516125 -14.42578125 64.21484375 C-14.42387283 65.35767319 -14.42196442 66.50050262 -14.41999817 67.67796326 C-14.54239889 75.60373722 -14.54239889 75.60373722 -16.91088867 79.59570312 C-19.81779731 82.07151826 -21.42608662 82.03422093 -25.09765625 81.80859375 C-27.98024213 81.15157726 -29.28336232 79.70962725 -31 77.375 C-32.24958868 74.87582265 -32.14722746 73.14643149 -32.17700195 70.34960938 C-32.18983719 69.30091675 -32.20267242 68.25222412 -32.21589661 67.17175293 C-32.22328354 66.03226196 -32.23067047 64.892771 -32.23828125 63.71875 C-32.246353 62.54671021 -32.25442474 61.37467041 -32.26274109 60.16711426 C-32.27659601 57.67880742 -32.28731183 55.19048146 -32.29516602 52.70214844 C-32.31230413 48.91824506 -32.35617041 45.13523225 -32.40039062 41.3515625 C-32.41052402 38.93229808 -32.41903809 36.51302624 -32.42578125 34.09375 C-32.44328934 32.97045288 -32.46079742 31.84715576 -32.47883606 30.68981934 C-32.45402665 21.58284453 -30.65671658 13.03171658 -24 6.375 C-16.0039402 0.42048738 -9.71691423 0.01065451 0 0 Z" transform="translate(107,56.625)"/><path fill="#EFFAFC" d="M0 0 C4.00079356 2.4449294 5.65936873 3.95918222 7.125 8.4375 C6.94203289 13.65206255 4.59394296 16.40605704 1 20 C-2.05610339 20.57039258 -4.94031349 20.5337277 -8 20 C-11.65305395 17.10799895 -13.74232841 14.88959163 -14.375 10.25 C-13.8528401 5.7246142 -12.15770622 4.2328897 -9 1 C-5.85088521 -0.57455739 -3.47991184 -0.34799118 0 0 Z" transform="translate(113,88)"/><path fill="#3592EC" d="M0 0 C0.66 0 1.32 0 2 0 C1.67999023 1.22541504 1.35998047 2.45083008 1.03027344 3.71337891 C-0.283944 9.65690338 -0.38826193 15.51827062 -0.484375 21.5859375 C-0.52053925 23.35404282 -0.52053925 23.35404282 -0.55743408 25.15786743 C-0.60549227 27.63364406 -0.64893364 30.10951419 -0.68798828 32.58544922 C-0.7501508 36.3842152 -0.83316949 40.18214813 -0.91796875 43.98046875 C-0.96218845 46.39060237 -1.00519996 48.80075853 -1.046875 51.2109375 C-1.07279724 52.34840424 -1.09871948 53.48587097 -1.12542725 54.6578064 C-1.13914368 55.70965118 -1.15286011 56.76149597 -1.16699219 57.84521484 C-1.18316589 58.77071136 -1.1993396 59.69620789 -1.21600342 60.64974976 C-1.16319926 63.27110856 -1.16319926 63.27110856 1 66 C0 67 0 67 -2.5625 67.0625 C-3.366875 67.041875 -4.17125 67.02125 -5 67 C-5 66.01 -5 65.02 -5 64 C-7.64 64 -10.28 64 -13 64 C-13.495 64.99 -13.495 64.99 -14 66 C-15.32 64.35 -16.64 62.7 -18 61 C-17.67 60.34 -17.34 59.68 -17 59 C-16.67 59.99 -16.34 60.98 -16 62 C-14.3973218 62.10824843 -12.79254252 62.18570645 -11.1875 62.25 C-10.29417969 62.29640625 -9.40085937 62.3428125 -8.48046875 62.390625 C-5.90392928 62.24036473 -5.90392928 62.24036473 -4.37001038 60.30981445 C-2.72394733 57.53457984 -2.61672272 55.86446034 -2.59936523 52.65234375 C-2.58602646 51.58443604 -2.57268768 50.51652832 -2.5589447 49.41625977 C-2.55882889 48.26826904 -2.55871307 47.12027832 -2.55859375 45.9375 C-2.54538589 44.75406006 -2.53217804 43.57062012 -2.51856995 42.35131836 C-2.47764035 38.56752164 -2.45599236 34.78396818 -2.4375 31 C-2.41372458 27.21610593 -2.3856185 23.43244143 -2.34571838 19.64868164 C-2.32134015 17.29378249 -2.30649891 14.93876148 -2.30210876 12.58374023 C-2.29192215 11.51583252 -2.28173553 10.4479248 -2.27124023 9.34765625 C-2.26482765 7.94012085 -2.26482765 7.94012085 -2.25828552 6.50415039 C-1.98884416 3.89184103 -1.32532575 2.24576115 0 0 Z" transform="translate(94,75)"/><path fill="#2A8AE5" d="M0 0 C0.66 0.66 1.32 1.32 2 2 C-0.12560437 1.69163768 -2.25047065 1.37818386 -4.375 1.0625 C-5.55835938 0.88847656 -6.74171875 0.71445312 -7.9609375 0.53515625 C-11 0 -11 0 -13 -1 C-17.26498366 -1.27497208 -21.53968285 -1.23182747 -25.8125 -1.25 C-26.98232422 -1.270625 -28.15214844 -1.29125 -29.35742188 -1.3125 C-38.05756171 -1.35093242 -47.31238677 -0.87219166 -55.22583008 3.12402344 C-57 4 -57 4 -59.25 3.625 C-59.8275 3.41875 -60.405 3.2125 -61 3 C-41.65928073 -5.42947278 -20.10429381 -7.4540954 0 0 Z" transform="translate(127,23)"/><path fill="#2D8BE4" d="M0 0 C0.33 0 0.66 0 1 0 C1.02505615 0.90355225 1.0501123 1.80710449 1.07592773 2.73803711 C1.17087317 6.0796428 1.27011621 9.42106252 1.37231445 12.76245117 C1.4157163 14.2106424 1.45738744 15.65888654 1.49731445 17.10717773 C1.55489062 19.18489559 1.61862028 21.26234573 1.68359375 23.33984375 C1.72025146 24.59144287 1.75690918 25.84304199 1.79467773 27.13256836 C1.67803906 29.89630504 1.67803906 29.89630504 3 31 C3.30063292 32.47339898 3.56490867 33.95426595 3.8125 35.4375 C4.71043107 40.24488479 6.2748607 44.4284036 8.29296875 48.87109375 C9 51 9 51 8 54 C0.77633125 37.09801779 -4.77471668 18.48277426 0 0 Z" transform="translate(22,82)"/><path fill="#238AEE" d="M0 0 C5.27448722 4.80909129 10.63130237 10.81433744 12 18 C11.34 18 10.68 18 10 18 C10 17.01 10 16.02 10 15 C8.02 15.99 8.02 15.99 6 17 C5.67 16.01 5.34 15.02 5 14 C4.34 13.67 3.68 13.34 3 13 C3.0928125 11.39125 3.0928125 11.39125 3.1875 9.75 C2.99047658 5.80953169 2.52063064 4.83570947 0 2 C0 1.34 0 0.68 0 0 Z" transform="translate(159,46)"/><path fill="#358EE3" d="M0 0 C0.33 0 0.66 0 1 0 C4.10820084 15.36266479 2.40529832 30.44430382 -3 45 C-4.20220203 41.46905698 -3.79532349 38.87101018 -3.0625 35.25 C-2.86785156 34.26515625 -2.67320312 33.2803125 -2.47265625 32.265625 C-2.23869141 31.14414063 -2.23869141 31.14414063 -2 30 C-1.34 30 -0.68 30 0 30 C0 20.1 0 10.2 0 0 Z" transform="translate(177,82)"/><path fill="#2189EC" d="M0 0 C0.66 0.33 1.32 0.66 2 1 C1.67 1.66 1.34 2.32 1 3 C0.58685744 7.6478538 1.21012684 10.24440152 4 14 C6.29629994 15.14814997 8.07698086 15.30769809 10.625 15.5625 C11.44226563 15.64628906 12.25953125 15.73007813 13.1015625 15.81640625 C13.72804688 15.87699219 14.35453125 15.93757813 15 16 C15 16.66 15 17.32 15 18 C13.02 18.66 11.04 19.32 9 20 C8.67 19.01 8.34 18.02 8 17 C6.88625 17.061875 5.7725 17.12375 4.625 17.1875 C3.42875 17.125625 2.2325 17.06375 1 17 C-1.40503353 13.3924497 -1.2396541 11.65163611 -1.1875 7.375 C-1.18105469 6.20710938 -1.17460938 5.03921875 -1.16796875 3.8359375 C-1 1 -1 1 0 0 Z" transform="translate(99,92)"/><path fill="#1886F3" d="M0 0 C0.66 0 1.32 0 2 0 C1.95875 0.763125 1.9175 1.52625 1.875 2.3125 C1.77919176 5.22718416 1.77919176 5.22718416 4 8 C3 9 3 9 0.4375 9.0625 C-0.366875 9.041875 -1.17125 9.02125 -2 9 C-2 8.01 -2 7.02 -2 6 C-4.64 6 -7.28 6 -10 6 C-10.33 6.66 -10.66 7.32 -11 8 C-12.32 6.35 -13.64 4.7 -15 3 C-14.67 2.34 -14.34 1.68 -14 1 C-13.67 1.99 -13.34 2.98 -13 4 C-11.3973218 4.10824843 -9.79254252 4.18570645 -8.1875 4.25 C-6.84751953 4.31960937 -6.84751953 4.31960937 -5.48046875 4.390625 C-2.83571214 4.25162354 -2.83571214 4.25162354 -1.30078125 1.984375 C-0.87152344 1.32953125 -0.44226563 0.6746875 0 0 Z" transform="translate(91,133)"/><path fill="#2C85D9" d="M0 0 C4.24977046 -0.11611395 8.49913337 -0.18722349 12.75 -0.25 C13.9565625 -0.28351562 15.163125 -0.31703125 16.40625 -0.3515625 C18.14648438 -0.37089844 18.14648438 -0.37089844 19.921875 -0.390625 C20.99018555 -0.41157227 22.05849609 -0.43251953 23.15917969 -0.45410156 C26.71499376 0.11429086 27.84455526 1.16428632 30 4 C30.88817586 7.89430952 31.2685771 10.19426871 30 14 C29.01 13.67 28.02 13.34 27 13 C27.33 12.67 27.66 12.34 28 12 C28.41692853 8.58399407 28.41692853 8.58399407 28 5 C24.999124 1.949461 22.54159046 1.59951038 18.359375 1.48828125 C17.28945312 1.45283203 16.21953125 1.41738281 15.1171875 1.38085938 C14.00601563 1.35830078 12.89484375 1.33574219 11.75 1.3125 C10.62335938 1.27833984 9.49671875 1.24417969 8.3359375 1.20898438 C5.55739099 1.12656986 2.77915748 1.05739702 0 1 C0 0.67 0 0.34 0 0 Z" transform="translate(96,56)"/><path fill="#2B8DE9" d="M0 0 C0.66 0.33 1.32 0.66 2 1 C-3.96583144 13.85421412 -3.96583144 13.85421412 -9 18 C-8.41196203 14.97580475 -7.77321882 11.98241547 -7 9 C-6.01 9.33 -5.02 9.66 -4 10 C-4 9.01 -4 8.02 -4 7 C-3.34 7 -2.68 7 -2 7 C-2.04125 6.21625 -2.0825 5.4325 -2.125 4.625 C-2 2 -2 2 0 0 Z" transform="translate(171,128)"/><path fill="#1F8AEF" d="M0 0 C3.33773709 3.64116773 3.97864902 7.28607242 5 12 C4.01 12.33 3.02 12.66 2 13 C1 10 1 10 1 7 C0.01 7.33 -0.98 7.66 -2 8 C-1.47731534 5.23723823 -0.89130413 2.6739124 0 0 Z" transform="translate(171,64)"/><path fill="#1F86EA" d="M0 0 C4.04706105 0.60447906 7.10764545 1.91169641 10.6875 3.875 C11.64011719 4.38804688 12.59273437 4.90109375 13.57421875 5.4296875 C16 7 16 7 18 10 C17.01 10 16.02 10 15 10 C15 9.34 15 8.68 15 8 C13.68 8 12.36 8 11 8 C11 7.34 11 6.68 11 6 C8.36 5.67 5.72 5.34 3 5 C3.33 4.01 3.66 3.02 4 2 C2.68 1.67 1.36 1.34 0 1 C0 0.67 0 0.34 0 0 Z" transform="translate(129,25)"/><path fill="#258AEA" d="M0 0 C0.66 0.33 1.32 0.66 2 1 C1.21625 1.2475 0.4325 1.495 -0.375 1.75 C-3.46879902 3.22323763 -3.56554536 4.04143731 -5 7 C-7.4375 8.8125 -7.4375 8.8125 -10 10 C-10.99 9.67 -11.98 9.34 -13 9 C-11.20966193 7.68568828 -9.41768797 6.3736047 -7.625 5.0625 C-6.62726562 4.33160156 -5.62953125 3.60070312 -4.6015625 2.84765625 C-2 1 -2 1 0 0 Z" transform="translate(62,28)"/><path fill="#DCF6FE" d="M0 0 C0.33 0.99 0.66 1.98 1 3 C-4.91684902 9.70459519 -4.91684902 9.70459519 -9.4375 10.9375 C-10.283125 10.958125 -11.12875 10.97875 -12 11 C-8.19588166 7.08060535 -4.18423892 3.50897269 0 0 Z" transform="translate(156,153)"/><path fill="#1886EC" d="M0 0 C0.66 0.66 1.32 1.32 2 2 C1.625 5.625 1.625 5.625 1 9 C-3.875 4.375 -3.875 4.375 -5 1 C-3.68 1.33 -2.36 1.66 -1 2 C-0.67 1.34 -0.34 0.68 0 0 Z" transform="translate(38,138)"/><path fill="#2D8DE8" d="M0 0 C1.52730554 4.93937111 0.0005063 8.83223636 -2.125 13.4375 C-2.41375 13.953125 -2.7025 14.46875 -3 15 C-4.43410153 11.21180727 -3.51009497 8.93478721 -2.0625 5.25 C-1.49208984 3.77273437 -1.49208984 3.77273437 -0.91015625 2.265625 C-0.60980469 1.51796875 -0.30945313 0.7703125 0 0 Z" transform="translate(27,66)"/><path fill="#D5F3FE" d="M0 0 C0 0.66 0 1.32 0 2 C-4.4024732 5.65083143 -7.32822615 6.45374191 -13 6 C-10.87838666 3.87838666 -9.2266841 3.07013751 -6.5 1.875 C-5.7059375 1.52179688 -4.911875 1.16859375 -4.09375 0.8046875 C-2 0 -2 0 0 0 Z" transform="translate(139,167)"/><path fill="#1786F4" d="M0 0 C1.875 0.625 1.875 0.625 4 2 C5.25 5.125 5.25 5.125 6 8 C5.34 8 4.68 8 4 8 C4 7.01 4 6.02 4 5 C2.02 5.99 2.02 5.99 0 7 C-0.93423645 3.98968256 -1.04449911 3.13349732 0 0 Z" transform="translate(165,56)"/><path fill="#D6F6FF" d="M0 0 C-2.70045182 1.80030122 -5.06677881 2.93377066 -8.0625 4.125 C-9.37927734 4.65480469 -9.37927734 4.65480469 -10.72265625 5.1953125 C-13 6 -13 6 -15 6 C-15 5.34 -15 4.68 -15 4 C-5.77448747 -0.59225513 -5.77448747 -0.59225513 0 0 Z" transform="translate(79,21)"/><path fill="#1D88E9" d="M0 0 C0.99 0.33 1.98 0.66 3 1 C2.45773019 4.79588866 0.79872437 6.47211993 -2 9 C-1.41196203 5.97580475 -0.77321882 2.98241547 0 0 Z" transform="translate(164,137)"/><path fill="#308DE4" d="M0 0 C0 4.46153846 0 4.46153846 -1 7 C-3.5625 9.25 -3.5625 9.25 -6 11 C-4.74194623 6.49197399 -3.09592835 3.5087188 0 0 Z" transform="translate(36,51)"/><path fill="#3194F1" d="M0 0 C0.99 0.495 0.99 0.495 2 1 C2 1.66 2 2.32 2 3 C4.64 3.33 7.28 3.66 10 4 C10 4.33 10 4.66 10 5 C8.35 5 6.7 5 5 5 C4.67 5.66 4.34 6.32 4 7 C0 2.25 0 2.25 0 0 Z" transform="translate(76,134)"/><path fill="#2B8CE7" d="M0 0 C0.66 0 1.32 0 2 0 C2 2.97 2 5.94 2 9 C1.01 9.33 0.02 9.66 -1 10 C-0.67 6.7 -0.34 3.4 0 0 Z" transform="translate(119,94)"/><path fill="#D1F6FF" d="M0 0 C0.66 0.33 1.32 0.66 2 1 C2 3.31 2 5.62 2 8 C1.01 8.495 1.01 8.495 0 9 C-0.84454356 5.62182575 -1.10844919 3.32534757 0 0 Z" transform="translate(123,60)"/><path fill="#2C8CE5" d="M0 0 C6.875 3.75 6.875 3.75 8 6 C7.01 6 6.02 6 5 6 C5 5.34 5 4.68 5 4 C3.68 4 2.36 4 1 4 C0.67 2.68 0.34 1.36 0 0 Z" transform="translate(139,29)"/></svg>