<svg xmlns="http://www.w3.org/2000/svg" xmlns:graph="ns_graphs;" xmlns:i="ns_ai;" xmlns:x="ns_extend;" xmlns:xlink="http://www.w3.org/1999/xlink" id="Layer_1" x="0" y="0" version="1.1" viewBox="0 0 154.9 161.3" style="enable-background:new 0 0 154.9 161.3" xml:space="preserve"><style type="text/css">.st0{fill:url(#SVGID_1_)}.st1{fill:#fff}</style><metadata><sfw xmlns="ns_sfw;"><slices/><sliceSourceBounds width="154.9" height="161.3" x="0" y=".7" bottomLeftOrigin="true"/></sfw></metadata><g><linearGradient id="SVGID_1_" x1="15.333" x2="140.247" y1="141.545" y2="24.466" gradientTransform="matrix(1 0 0 -1 5.126249e-07 164)" gradientUnits="userSpaceOnUse"><stop offset="0" style="stop-color:#00fbff"/><stop offset="1" style="stop-color:#10dce8"/><stop offset="1" style="stop-color:#09c9e3"/></linearGradient><path d="M77.4,0c8.1,0,14,13,21.3,15.3c7.6,2.4,20-4.5,26.3,0.1c6.4,4.6,3.5,18.6,8.2,24.9c4.6,6.3,18.8,7.9,21.3,15.4 c2.4,7.3-8.1,16.9-8.1,24.9c0,8.1,10.5,17.7,8.1,24.9c-2.5,7.5-16.7,9.2-21.3,15.4c-4.6,6.3-1.8,20.3-8.2,24.9 c-6.3,4.6-18.7-2.4-26.3,0.1c-7.3,2.4-13.2,15.3-21.3,15.3s-14-13-21.3-15.3c-7.6-2.4-20,4.5-26.3-0.1c-6.4-4.6-3.5-18.6-8.2-24.9 c-4.6-6.3-18.8-7.9-21.3-15.4C-2,98.3,8.5,88.7,8.5,80.7C8.5,72.6-2,63,0.4,55.7c2.5-7.5,16.7-9.2,21.3-15.4 c4.6-6.3,1.8-20.3,8.2-24.9c6.3-4.6,18.7,2.4,26.3-0.1C63.4,13,69.3,0,77.4,0z" class="st0"/><path d="M76.1,42.6L54.3,84.1c-0.2,0.5-0.4,1-0.3,1.5c0,0.5,0.2,1,0.4,1.5c0.3,0.4,0.6,0.8,1.1,1.1 c0.4,0.3,0.9,0.4,1.5,0.4h11.5c0.4,0,0.8,0.1,1.1,0.2c0.4,0.2,0.7,0.4,1,0.6c0.3,0.3,0.5,0.6,0.6,1c0.1,0.4,0.2,0.8,0.2,1.1v24.9 c0,3.1,4.1,4.2,5.5,1.5l22.8-41.1c0.3-0.5,0.4-1,0.4-1.5c0-0.5-0.1-1-0.4-1.5c-0.3-0.5-0.6-0.8-1.1-1.1c-0.4-0.3-1-0.4-1.5-0.4 l-12.4,0c-0.8,0-1.5-0.3-2.1-0.9c-0.6-0.6-0.9-1.3-0.9-2.1V44C81.7,40.9,77.5,39.9,76.1,42.6z" class="st1"/></g></svg>