<svg xmlns="http://www.w3.org/2000/svg" width="180" height="180" version="1.1"><path fill="#000" d="M0 0 C0.94359375 0.71736328 0.94359375 0.71736328 1.90625 1.44921875 C17.22642976 13.60090679 29.13033151 35.39797507 31.76855469 54.66259766 C34.47697354 82.01534253 29.55361227 106.41829565 12 128 C11.52175781 128.6290625 11.04351562 129.258125 10.55078125 129.90625 C-1.60090679 145.22642976 -23.39797507 157.13033151 -42.66259766 159.76855469 C-70.01534253 162.47697354 -94.41829565 157.55361227 -116 140 C-116.94359375 139.28263672 -116.94359375 139.28263672 -117.90625 138.55078125 C-133.22642976 126.39909321 -145.13033151 104.60202493 -147.76855469 85.33740234 C-150.47697354 57.98465747 -145.55361227 33.58170435 -128 12 C-127.52175781 11.3709375 -127.04351562 10.741875 -126.55078125 10.09375 C-114.39909321 -5.22642976 -92.60202493 -17.13033151 -73.33740234 -19.76855469 C-45.98465747 -22.47697354 -21.58170435 -17.55361227 0 0 Z" transform="translate(148,20)"/><path fill="#DBDBDB" d="M0 0 C5.28 0 10.56 0 16 0 C21.70322406 5.98143012 21.70322406 5.98143012 23.4453125 8.9609375 C26.29099793 13.5814501 29.62951756 17.7547907 33 22 C34.21011623 23.55069366 35.41847779 25.10275836 36.625 26.65625 C37.2025 27.39875 37.78 28.14125 38.375 28.90625 C41.39268415 32.79441997 44.38668087 36.70067425 47.3828125 40.60546875 C49.92962865 43.91672737 52.50089396 47.20868803 55.0715332 50.50146484 C62.99716158 60.65768499 70.75852978 70.92792115 78.4296875 81.27734375 C83.44038809 88.01318174 88.62812336 94.54866824 94 101 C93.67 101.66 93.34 102.32 93 103 C91.515 103.495 91.515 103.495 90 104 C89.34 104.99 88.68 105.98 88 107 C87.01 107 86.02 107 85 107 C84.67 107.66 84.34 108.32 84 109 C83.53851563 108.35675781 83.07703125 107.71351563 82.6015625 107.05078125 C75.74726372 97.55500369 68.74333827 88.20189267 61.1875 79.25 C56.57460709 73.76947834 52.21754896 68.12062123 47.88525391 62.41674805 C44.4813402 57.93521092 41.04852917 53.4804571 37.5625 49.0625 C33.23557599 43.57369444 28.92274254 38.07419884 24.625 32.5625 C23.75016968 31.44403687 23.75016968 31.44403687 22.85766602 30.30297852 C22.29877686 29.58553467 21.7398877 28.86809082 21.1640625 28.12890625 C20.67373535 27.50056885 20.1834082 26.87223145 19.67822266 26.22485352 C17.39218918 23.19421298 15.20646556 20.08905178 13 17 C12.67 35.15 12.34 53.3 12 72 C8.04 72 4.08 72 0 72 C0 48.24 0 24.48 0 0 Z" transform="translate(54,54)"/><path fill="#3F3F3F" d="M0 0 C0.94359375 0.71736328 0.94359375 0.71736328 1.90625 1.44921875 C17.22642976 13.60090679 29.13033151 35.39797507 31.76855469 54.66259766 C34.47697354 82.01534253 29.55361227 106.41829565 12 128 C11.52175781 128.6290625 11.04351562 129.258125 10.55078125 129.90625 C-1.60090679 145.22642976 -23.39797507 157.13033151 -42.66259766 159.76855469 C-70.01534253 162.47697354 -94.41829565 157.55361227 -116 140 C-116.94359375 139.28263672 -116.94359375 139.28263672 -117.90625 138.55078125 C-133.22642976 126.39909321 -145.13033151 104.60202493 -147.76855469 85.33740234 C-150.47697354 57.98465747 -145.55361227 33.58170435 -128 12 C-127.52175781 11.3709375 -127.04351562 10.741875 -126.55078125 10.09375 C-114.39909321 -5.22642976 -92.60202493 -17.13033151 -73.33740234 -19.76855469 C-45.98465747 -22.47697354 -21.58170435 -17.55361227 0 0 Z M-127 15 C-141.2843914 33.32855674 -148.46802547 55.82320303 -146 79 C-144.05855825 92.42768076 -139.85469404 104.33243568 -133 116 C-132.46761719 116.9075 -131.93523437 117.815 -131.38671875 118.75 C-117.87583212 139.67008252 -96.71007222 151.4147174 -73 157 C-72.20335938 157.19335938 -71.40671875 157.38671875 -70.5859375 157.5859375 C-49.0684623 161.03133383 -26.9327398 154.95515986 -9 143 C-9 142.34 -9 141.68 -9 141 C-8.360625 140.87625 -7.72125 140.7525 -7.0625 140.625 C-6.381875 140.41875 -5.70125 140.2125 -5 140 C-4.67 139.34 -4.34 138.68 -4 138 C-3.25234375 137.55269531 -2.5046875 137.10539063 -1.734375 136.64453125 C8.17448678 130.68505867 14.29984839 120.72654206 20 111 C20.43183594 110.26910156 20.86367187 109.53820312 21.30859375 108.78515625 C31.24655491 90.49466741 32.83781421 67.02707996 27.32421875 47.16796875 C19.9639183 23.01645252 4.89036181 4.41830588 -17 -8 C-17.72574219 -8.42667969 -18.45148438 -8.85335938 -19.19921875 -9.29296875 C-55.92455273 -29.38796282 -101.14201159 -15.28348288 -127 15 Z" transform="translate(148,20)"/><path fill="#BBB" d="M0 0 C3.96 0 7.92 0 12 0 C12 10.23 12 20.46 12 31 C4 32 4 32 0 31 C0 20.77 0 10.54 0 0 Z" transform="translate(115,54)"/><path fill="#7F7F7F" d="M0 0 C0.99 0.33 1.98 0.66 3 1 C3 5.62 3 10.24 3 15 C-4.5 16.125 -4.5 16.125 -9 15 C-9 10.38 -9 5.76 -9 1 C-6.01002175 -0.49498913 -3.29957225 -0.11577446 0 0 Z" transform="translate(124,70)"/><path fill="#5D5D5D" d="M0 0 C3.96 0 7.92 0 12 0 C12 4.95 12 9.9 12 15 C10.7625 15.020625 9.525 15.04125 8.25 15.0625 C7.55390625 15.07410156 6.8578125 15.08570312 6.140625 15.09765625 C4 15 4 15 0 14 C0 9.38 0 4.76 0 0 Z" transform="translate(115,85)"/><path fill="#E8E8E8" d="M0 0 C3.96 0 7.92 0 12 0 C12 2.31 12 4.62 12 7 C8.64574534 8.11808489 6.41010364 7.78694699 3 7 C2.01 7 1.02 7 0 7 C0 4.69 0 2.38 0 0 Z" transform="translate(115,54)"/><path fill="#303030" d="M0 0 C3.96 0 7.92 0 12 0 C12 1.98 12 3.96 12 6 C3.42857143 6.14285714 3.42857143 6.14285714 0 5 C0 3.35 0 1.7 0 0 Z" transform="translate(115,94)"/><path fill="#A2A2A2" d="M0 0 C0.99 0.33 1.98 0.66 3 1 C2.67 2.65 2.34 4.3 2 6 C0.01432292 5.96744792 -1.97135417 5.93489583 -3.95703125 5.90234375 C-6.20305461 5.91736783 -6.20305461 5.91736783 -9 7 C-9 5.02 -9 3.04 -9 1 C-6.01002175 -0.49498913 -3.29957225 -0.11577446 0 0 Z" transform="translate(124,70)"/><path fill="#181818" d="M0 0 C1.62490954 -0.02698189 3.24994633 -0.04638757 4.875 -0.0625 C5.77992187 -0.07410156 6.68484375 -0.08570312 7.6171875 -0.09765625 C10 0 10 0 12 1 C12 2.32 12 3.64 12 5 C7.74433453 6.16063604 4.3164922 5.76173392 0 5 C0 3.35 0 1.7 0 0 Z" transform="translate(115,99)"/><path fill="#474747" d="M0 0 C0.33 1.65 0.66 3.3 1 5 C-1.62315032 6.31157516 -3.23033436 5.89649988 -6.125 5.5625 C-7.03507812 5.46066406 -7.94515625 5.35882813 -8.8828125 5.25390625 C-9.58148438 5.17011719 -10.28015625 5.08632812 -11 5 C-11 3.68 -11 2.36 -11 1 C-7.26562152 0.12132271 -3.83225427 -0.08912219 0 0 Z" transform="translate(126,89)"/><path fill="#D2D2D2" d="M0 0 C0.80824219 0.10183594 1.61648437 0.20367187 2.44921875 0.30859375 C3.06410156 0.39238281 3.67898437 0.47617187 4.3125 0.5625 C4.3125 1.8825 4.3125 3.2025 4.3125 4.5625 C-0.02023814 5.49094389 -3.35476186 5.49094389 -7.6875 4.5625 C-7.6875 3.2425 -7.6875 1.9225 -7.6875 0.5625 C-4.59271121 -0.46909626 -3.16118607 -0.41232862 0 0 Z" transform="translate(122.6875,60.4375)"/><path fill="#F9F9F9" d="M0 0 C3.96 0 7.92 0 12 0 C11.67 0.99 11.34 1.98 11 3 C7.66666667 3 4.33333333 3 1 3 C0.67 2.01 0.34 1.02 0 0 Z" transform="translate(115,54)"/></svg>