<svg xmlns="http://www.w3.org/2000/svg" width="141" height="47" fill="none" viewBox="0 0 141 47"><path fill="#F4F4F4" d="M23.4741 0C10.5142 0 0 10.5258 0 23.5C0 36.4742 10.5142 47 23.4741 47C36.434 47 46.9482 36.4742 46.9482 23.5C46.9482 10.5258 36.434 0 23.4741 0ZM11.9227 37.3267L20.013 7.24674H24.5113L16.421 37.3267H11.9227ZM37.7551 26.2763L35.2985 28.2656L31.3898 23.8279L27.3173 28.2656L24.7625 26.3856L27.9942 21.4779L22.6662 19.3902L23.616 15.9909L29.2389 17.4556L29.7084 11.8702H32.8965L33.366 17.4556L38.6941 16.1002L39.7859 19.3902L34.5124 21.4779L37.7551 26.2763Z"/><path fill="#F4F4F4" d="M70.0841 19.3679C69.7238 18.0782 68.5992 16.9086 66.4702 16.9086C64.5376 16.9086 63.0746 17.8268 63.0855 19.1602C63.0746 20.297 63.8607 20.9856 65.8587 21.4337L69.2106 22.1551C72.9119 22.964 74.7134 24.68 74.7352 27.4782C74.7243 31.2054 71.2633 33.7521 66.3501 33.7521C61.5351 33.7521 58.4999 31.6207 57.9321 28.0028L62.4414 27.5656C62.8344 29.3363 64.221 30.2544 66.3391 30.2544C68.5337 30.2544 69.9967 29.2489 69.9967 27.9044C69.9967 26.7895 69.156 26.0572 67.3545 25.6637L64.0027 24.9642C60.2359 24.1882 58.4671 22.2863 58.478 19.4226C58.4671 15.7937 61.688 13.4656 66.4156 13.4656C71.0121 13.4656 73.6762 15.5861 74.3094 18.9198L70.0841 19.3679Z"/><path fill="#F4F4F4" d="M75.3027 23.653C75.3027 17.5868 78.9712 13.4551 84.5941 13.4551C89.42 13.4551 93.5689 16.4828 93.5689 23.3798V24.8007H79.8884C79.9321 28.1672 81.9082 30.1347 84.8998 30.1347C86.8979 30.1347 88.4264 29.2603 89.0487 27.5989L93.3724 28.0798C92.5535 31.501 89.4091 33.7307 84.8343 33.7307C78.9167 33.7417 75.3027 29.8177 75.3027 23.653ZM89.1361 21.6856C89.1143 19.0077 87.3237 17.0621 84.6596 17.0621C81.8973 17.0621 80.0412 19.1717 79.9102 21.6856H89.1361Z"/><path fill="#F4F4F4" d="M94.5957 13.947H99.0176V17.2807H99.2469C100.066 15.04 102.031 13.6847 104.662 13.6847C107.304 13.6847 109.215 15.0509 109.969 17.2807H110.176C111.049 15.0947 113.222 13.6847 116.072 13.6847C119.675 13.6847 122.208 16.0128 122.208 20.3958V33.5886H117.568V21.1281C117.568 18.7016 116.083 17.5977 114.216 17.5977C111.977 17.5977 110.667 19.1279 110.667 21.3468V33.5995H106.125V20.9314C106.125 18.9093 104.782 17.5977 102.828 17.5977C100.83 17.5977 99.225 19.2372 99.225 21.6528V33.5995H94.5957V13.947Z"/><path fill="#F4F4F4" d="M123.343 28.3312C123.343 23.9044 126.989 22.7677 130.789 22.3523C134.25 21.9807 135.648 21.9151 135.648 20.5816V20.5051C135.648 18.5705 134.468 17.4775 132.328 17.4775C130.068 17.4775 128.758 18.6251 128.3 19.9695L123.976 19.3575C125.002 15.7723 128.169 13.9361 132.296 13.9361C136.041 13.9361 140.266 15.4991 140.266 20.6909V33.84H135.822V31.1402H135.669C134.829 32.7907 132.984 34.2335 129.905 34.2335C126.171 34.2335 123.343 32.1895 123.343 28.3312ZM135.659 26.79V24.4728C135.058 24.9537 132.634 25.2707 131.411 25.4347C129.337 25.7298 127.797 26.473 127.797 28.2547C127.797 29.9598 129.173 30.8342 131.106 30.8342C133.901 30.8342 135.659 28.9761 135.659 26.79Z"/></svg>