<?xml version="1.0" encoding="UTF-8"?>
<svg version="1.1" xmlns="http://www.w3.org/2000/svg" width="200" height="200">
<path d="M0 0 C66 0 132 0 200 0 C200 66 200 132 200 200 C134 200 68 200 0 200 C0 134 0 68 0 0 Z " fill="#000000" transform="translate(0,0)"/>
<path d="M0 0 C2.57180786 0.62966919 2.57180786 0.62966919 4.57180786 2.62966919 C4.29989344 6.76563008 2.93942936 8.76547931 0.06845093 11.65441895 C-1.05868317 12.80280746 -1.05868317 12.80280746 -2.20858765 13.97439575 C-3.03870361 14.79955688 -3.86881958 15.62471802 -4.72409058 16.47488403 C-6.02899445 17.7951207 -6.02899445 17.7951207 -7.36026001 19.14202881 C-9.74543295 21.55023296 -12.1393208 23.94903041 -14.53854656 26.34318876 C-16.54028079 28.34278287 -18.53602874 30.34829948 -20.53189492 32.35374796 C-25.23906696 37.08309968 -29.95680418 41.80172697 -34.68112183 46.51394653 C-39.55708762 51.37781777 -44.41437942 56.25978626 -49.26296973 61.15093458 C-53.42633934 65.34950019 -57.60119254 69.53639829 -61.78545403 73.7141434 C-64.28459384 76.20965293 -66.77905133 78.70943288 -69.26247406 81.2205925 C-72.02979508 84.01766029 -74.8208688 86.79023595 -77.61471558 89.56082153 C-78.43673462 90.39812805 -79.25875366 91.23543457 -80.10568237 92.09811401 C-80.8683844 92.84678741 -81.63108643 93.59546082 -82.41690063 94.36682129 C-83.40357538 95.35399926 -83.40357538 95.35399926 -84.41018295 96.36112022 C-86.42819214 97.62966919 -86.42819214 97.62966919 -89.11639786 97.39609718 C-91.42819214 96.62966919 -91.42819214 96.62966919 -92.42819214 95.62966919 C-92.99536133 93.12036133 -92.99536133 93.12036133 -92.42819214 89.62966919 C-90.08249848 86.34684148 -87.22192362 83.6046918 -84.35348511 80.77859497 C-83.49505508 79.90965103 -82.63662506 79.04070709 -81.75218201 78.14543152 C-79.39719348 75.76856406 -77.02949259 73.4059837 -74.65409231 71.04961634 C-72.16949538 68.5802213 -69.69958395 66.09620757 -67.22729492 63.61450195 C-63.07322537 59.44951972 -58.90667234 55.29734066 -54.73287964 51.15213013 C-49.90912074 46.3610244 -45.10735873 41.54868517 -40.31645286 36.72474492 C-36.20087796 32.58193291 -32.07371361 28.45094002 -27.93665612 24.32958019 C-25.46649921 21.86877251 -23.00056331 19.40410252 -20.54500961 16.92871475 C-17.80679542 14.16993368 -15.04446773 11.43611963 -12.27926636 8.70437622 C-11.06330025 7.47019203 -11.06330025 7.47019203 -9.82276917 6.21107483 C-4.27238658 0.78472562 -4.27238658 0.78472562 0 0 Z " fill="#F8F8F8" transform="translate(137.42819213867188,44.370330810546875)"/>
<path d="M0 0 C3 -0.3125 3 -0.3125 6 0 C8 2 8 2 8.0625 4.75 C6.76587247 8.7161548 5.10813242 9.92536997 1.90234375 12.4296875 C-0.59448269 14.49072288 -2.5389648 16.85708726 -4.6015625 19.33984375 C-7.45478448 22.72704861 -10.56680867 25.64803204 -14 28.4375 C-17.07903881 31.06751232 -19.45078401 33.8625034 -22 37 C-24.69805919 39.84006231 -27.49509382 42.43341151 -30.5 44.9375 C-32.86036953 46.90532427 -34.7301889 48.84977961 -36.5625 51.3125 C-39 54 -39 54 -42.1875 55 C-43.115625 55 -44.04375 55 -45 55 C-47 53 -47 53 -47.125 49.875 C-47.08375 48.92625 -47.0425 47.9775 -47 47 C-46.38125 46.7525 -45.7625 46.505 -45.125 46.25 C-42.57496075 44.74997691 -42.23777652 43.6302751 -41 41 C-39 38.75 -39 38.75 -37 37 C-36.34 37 -35.68 37 -35 37 C-34.7525 36.4225 -34.505 35.845 -34.25 35.25 C-32.81700012 32.67060021 -31.21575324 30.93878408 -29 29 C-28.34 29 -27.68 29 -27 29 C-26.79375 28.443125 -26.5875 27.88625 -26.375 27.3125 C-24.8570529 24.75958897 -23.03966431 23.31993959 -20.72265625 21.50390625 C-18.00768025 19.13368911 -15.79764537 16.35478861 -13.515625 13.57421875 C-13.01546875 13.05472656 -12.5153125 12.53523438 -12 12 C-11.34 12 -10.68 12 -10 12 C-9.79375 11.443125 -9.5875 10.88625 -9.375 10.3125 C-7.48959912 7.14159851 -4.84640641 5.31270521 -2 3 C-1.34 2.01 -0.68 1.02 0 0 Z " fill="#F3F3F3" transform="translate(143,96)"/>
</svg>
