<svg xmlns="http://www.w3.org/2000/svg" width="24" height="24" fill="none" viewBox="0 0 24 24"><g clip-path="url(#clip0_3307_956)"><path fill="#fff" d="M6.43875 23.3137L0.75 0.689941L23.25 7.00869"/><path stroke="#000" stroke-miterlimit="10" stroke-width=".48" d="M9.21753 13.5901L10.6388 19.2488"/><path stroke="#000" stroke-miterlimit="10" stroke-width=".48" d="M14.8313 15.1801L9.21753 13.5901"/><path stroke="#000" stroke-miterlimit="10" stroke-width=".48" d="M10.6387 19.2487L14.8312 15.1799"/><path stroke="#000" stroke-miterlimit="10" stroke-width=".48" d="M10.6387 19.2487L5.0249 17.6587"/><path stroke="#000" stroke-miterlimit="10" stroke-width=".48" d="M5.0249 17.6587L6.44615 23.3212L10.6387 19.2487"/><path stroke="#000" stroke-miterlimit="10" stroke-width=".48" d="M5.0249 17.6588L9.2174 13.5901"/><path stroke="#000" stroke-miterlimit="10" stroke-width=".48" d="M9.21753 13.5901L13.4138 9.51758"/><path stroke="#000" stroke-miterlimit="10" stroke-width=".48" d="M13.4138 9.51748L17.6063 5.44873"/><path stroke="#000" stroke-miterlimit="10" stroke-width=".48" d="M11.9924 3.85864L13.4137 9.51739"/><path stroke="#000" stroke-miterlimit="10" stroke-width=".48" d="M13.4136 9.5174L7.79614 7.93115"/><path stroke="#000" stroke-miterlimit="10" stroke-width=".48" d="M7.79614 7.93115L9.21739 13.5899"/><path stroke="#000" stroke-miterlimit="10" stroke-width=".48" d="M9.21751 13.59L3.60376 12"/><path stroke="#000" stroke-miterlimit="10" stroke-width=".48" d="M3.60376 12L5.02501 17.6587"/><path stroke="#000" stroke-miterlimit="10" stroke-width=".48" d="M2.18262 6.34131L3.60387 12.0001"/><path stroke="#000" stroke-miterlimit="10" stroke-width=".48" d="M7.79637 7.93131L2.18262 6.34131"/><path stroke="#000" stroke-miterlimit="10" stroke-width=".48" d="M3.60376 11.9999L7.79626 7.93115"/><path stroke="#000" stroke-miterlimit="10" stroke-width=".48" d="M7.79614 7.92739L11.9924 3.85864"/><path stroke="#000" stroke-miterlimit="10" stroke-width=".48" d="M11.9925 3.8588L6.375 2.2688"/><path stroke="#000" stroke-miterlimit="10" stroke-width=".48" d="M6.375 2.2688L7.79625 7.92755"/><path stroke="#000" stroke-miterlimit="10" stroke-width=".48" d="M2.18248 6.34121L0.76123 0.678711L6.37498 2.26871"/><path stroke="#000" stroke-miterlimit="10" stroke-width=".48" d="M2.18262 6.3413L6.37512 2.2688"/><path stroke="#000" stroke-miterlimit="10" stroke-width=".48" d="M19.0275 11.1075L23.22 7.03873L17.6062 5.44873"/><path stroke="#000" stroke-miterlimit="10" stroke-width=".48" d="M17.6062 5.44873L19.0275 11.1075"/><path stroke="#000" stroke-miterlimit="10" stroke-width=".48" d="M19.0276 11.1076L13.4138 9.51758"/><path stroke="#000" stroke-miterlimit="10" stroke-width=".48" d="M13.4138 9.51758L14.8313 15.1801"/><path stroke="#000" stroke-miterlimit="10" stroke-width=".48" d="M14.8313 15.1799L19.0275 11.1074"/><path stroke="#000" stroke-miterlimit="10" stroke-width=".48" d="M17.6062 5.44864L11.9924 3.85864"/></g><defs><clipPath id="clip0_3307_956"><rect width="24" height="24" fill="#fff"/></clipPath></defs></svg>