<svg xmlns="http://www.w3.org/2000/svg" width="200" height="200" version="1.1"><path fill="#FDFEFE" d="M0 0 C66 0 132 0 200 0 C200 66 200 132 200 200 C134 200 68 200 0 200 C0 134 0 68 0 0 Z" transform="translate(0,0)"/><path fill="#627EFF" d="M0 0 C0.66 0 1.32 0 2 0 C1.67 1.32 1.34 2.64 1 4 C-3.95 4 -8.9 4 -14 4 C-14 4.66 -14 5.32 -14 6 C-11.03 6 -8.06 6 -5 6 C-4.67 7.32 -4.34 8.64 -4 10 C-2.64467163 9.99214478 -2.64467163 9.99214478 -1.26196289 9.98413086 C2.07951489 9.96712314 5.42094692 9.95456667 8.76245117 9.94506836 C10.21070073 9.94002899 11.65894517 9.93319747 13.10717773 9.92456055 C15.18474588 9.91247753 17.26224697 9.90676789 19.33984375 9.90234375 C20.59144287 9.89710693 21.84304199 9.89187012 23.13256836 9.88647461 C26 10 26 10 27 11 C27.09946453 12.76859193 27.13080217 14.54111451 27.1328125 16.3125 C27.13474609 17.92511719 27.13474609 17.92511719 27.13671875 19.5703125 C27.13285156 20.70210937 27.12898438 21.83390625 27.125 23 C27.13080078 24.69769531 27.13080078 24.69769531 27.13671875 26.4296875 C27.13542969 27.50476563 27.13414062 28.57984375 27.1328125 29.6875 C27.13168457 30.68136719 27.13055664 31.67523438 27.12939453 32.69921875 C27 35 27 35 26 36 C24.33382885 36.04063832 22.66611905 36.042721 21 36 C21.02320313 36.73605469 21.04640625 37.47210938 21.0703125 38.23046875 C21.08835938 39.20628906 21.10640625 40.18210938 21.125 41.1875 C21.14820313 42.15042969 21.17140625 43.11335938 21.1953125 44.10546875 C20.98871391 47.16725986 20.14968467 49.17804671 19 52 C18.72123482 54.0959986 18.51411256 56.20262611 18.375 58.3125 C18.30023438 59.38113281 18.22546875 60.44976562 18.1484375 61.55078125 C18.09945312 62.35902344 18.05046875 63.16726562 18 64 C17.67 64 17.34 64 17 64 C17 62.35 17 60.7 17 59 C13.04 59 9.08 59 5 59 C5 60.98 5 62.96 5 65 C4.01 65 3.02 65 2 65 C2.04640625 64.28714844 2.0928125 63.57429688 2.140625 62.83984375 C2.48543047 56.24262799 2.48543047 56.24262799 0 50.3125 C-2.57887278 46.04124196 -2.4984539 43.9014633 -2 39 C-1.34 38.34 -0.68 37.68 0 37 C-3.3 37 -6.6 37 -10 37 C-9.34 37.33 -8.68 37.66 -8 38 C-7.5543187 45.06900067 -7.52821819 48.41027274 -12 54 C-12.35785748 57.68908965 -12.23295209 61.30512096 -12 65 C-12.66 65 -13.32 65 -14 65 C-14 63.02 -14 61.04 -14 59 C-17.96 59 -21.92 59 -26 59 C-26 60.98 -26 62.96 -26 65 C-26.66 65 -27.32 65 -28 65 C-27.97679688 64.19175781 -27.95359375 63.38351563 -27.9296875 62.55078125 C-27.91164063 61.48214844 -27.89359375 60.41351563 -27.875 59.3125 C-27.85179688 58.25675781 -27.82859375 57.20101562 -27.8046875 56.11328125 C-27.83501195 53.03483207 -27.83501195 53.03483207 -29 50.5 C-30.23092652 47.4226837 -30.1975465 44.98836589 -30.125 41.6875 C-30.10695313 40.61886719 -30.08890625 39.55023438 -30.0703125 38.44921875 C-30.04710938 37.64097656 -30.02390625 36.83273438 -30 36 C-31.98 36 -33.96 36 -36 36 C-36.02886751 31.85418113 -36.04675327 27.70838784 -36.0625 23.5625 C-36.07087891 22.37849609 -36.07925781 21.19449219 -36.08789062 19.97460938 C-36.09111328 18.84990234 -36.09433594 17.72519531 -36.09765625 16.56640625 C-36.10289307 15.52427979 -36.10812988 14.48215332 -36.11352539 13.40844727 C-36 11 -36 11 -35 10 C-32.85441173 9.91224395 -30.70595579 9.89304781 -28.55859375 9.90234375 C-27.25341797 9.90556641 -25.94824219 9.90878906 -24.60351562 9.91210938 C-23.2148431 9.92046599 -21.82617123 9.92893095 -20.4375 9.9375 C-19.04492344 9.94251334 -17.65234519 9.94707653 -16.25976562 9.95117188 C-12.8398013 9.96300566 -9.41992156 9.9794912 -6 10 C-6 9.34 -6 8.68 -6 8 C-7.918125 8.0309375 -7.918125 8.0309375 -9.875 8.0625 C-13.75 8.125 -13.75 8.125 -16 7 C-15.67 5.35 -15.34 3.7 -15 2 C-10.05 2 -5.1 2 0 2 C0 1.34 0 0.68 0 0 Z" transform="translate(105,46)"/><path fill="#D6DEFF" d="M0 0 C19.47 0 38.94 0 59 0 C59 7.26 59 14.52 59 22 C57.35 22 55.7 22 54 22 C53.505 20.515 53.505 20.515 53 19 C51.28430882 17.72607271 51.28430882 17.72607271 49.1875 16.75 C48.50042969 16.39421875 47.81335938 16.0384375 47.10546875 15.671875 C44.59652314 14.87124672 43.45613733 15.14309205 41 16 C40.01 16.33 39.02 16.66 38 17 C37.505 19.475 37.505 19.475 37 22 C32.05 22 27.1 22 22 22 C21.505 19.525 21.505 19.525 21 17 C19.25 15.5 19.25 15.5 17 15 C14.02892298 15.53850771 11.50770097 16.59748451 8.8125 17.9375 C8.11769531 18.27652344 7.42289062 18.61554688 6.70703125 18.96484375 C4.83013641 19.89563877 4.83013641 19.89563877 4 22 C2.68 22 1.36 22 0 22 C0 14.74 0 7.48 0 0 Z" transform="translate(71,58)"/><path fill="#EDF0FF" d="M0 0 C0.66 0 1.32 0 2 0 C2 3.63 2 7.26 2 11 C2.66 11 3.32 11 4 11 C4 8.36 4 5.72 4 3 C4.66 2.67 5.32 2.34 6 2 C6 4.97 6 7.94 6 11 C6.66 11 7.32 11 8 11 C8 9.02 8 7.04 8 5 C8.66 4.67 9.32 4.34 10 4 C10.55353075 22.04100228 10.55353075 22.04100228 7 29 C3.7 29 0.4 29 -3 29 C-3.268125 28.278125 -3.53625 27.55625 -3.8125 26.8125 C-4.89923617 23.97808354 -4.89923617 23.97808354 -6.625 21.625 C-8.37837539 18.27764698 -8.21906316 15.72407371 -8 12 C-7.01 12 -6.02 12 -5 12 C-4.67 8.7 -4.34 5.4 -4 2 C-3.34 2 -2.68 2 -2 2 C-2 4.97 -2 7.94 -2 11 C-1.34 11 -0.68 11 0 11 C0 7.37 0 3.74 0 0 Z" transform="translate(113,74)"/><path fill="#F6F8FF" d="M0 0 C0.66 0 1.32 0 2 0 C2 3.63 2 7.26 2 11 C2.66 11 3.32 11 4 11 C4 8.03 4 5.06 4 2 C4.66 2 5.32 2 6 2 C6 6.62 6 11.24 6 16 C6.66 16 7.32 16 8 16 C8 14.35 8 12.7 8 11 C8.66 11 9.32 11 10 11 C10.61088792 18.69718782 9.13449287 22.48817373 5 29 C1.7 29 -1.6 29 -5 29 C-8.18099979 20.38479224 -8.32677388 13.07705219 -8 4 C-7.34 4 -6.68 4 -6 4 C-6 6.31 -6 8.62 -6 11 C-5.34 11 -4.68 11 -4 11 C-4 8.03 -4 5.06 -4 2 C-3.34 2 -2.68 2 -2 2 C-2 4.97 -2 7.94 -2 11 C-1.34 11 -0.68 11 0 11 C0 7.37 0 3.74 0 0 Z" transform="translate(85,74)"/><path fill="#5472FF" d="M0 0 C0.66 0 1.32 0 2 0 C1.67 1.32 1.34 2.64 1 4 C-3.95 4 -8.9 4 -14 4 C-14 4.66 -14 5.32 -14 6 C-11.03 6 -8.06 6 -5 6 C-4.67 7.32 -4.34 8.64 -4 10 C5.24 10 14.48 10 24 10 C24 10.33 24 10.66 24 11 C4.86 11 -14.28 11 -34 11 C-34 18.59 -34 26.18 -34 34 C-32.68 34 -31.36 34 -30 34 C-29.814375 33.401875 -29.62875 32.80375 -29.4375 32.1875 C-27.28189545 28.90723221 -24.64323021 28.21441007 -21 27 C-20.01 27.33 -19.02 27.66 -18 28 C-18.66 28 -19.32 28 -20 28 C-20 31.63 -20 35.26 -20 39 C-20.66 39 -21.32 39 -22 39 C-22 36.03 -22 33.06 -22 30 C-22.66 30 -23.32 30 -24 30 C-24 32.97 -24 35.94 -24 39 C-24.66 39 -25.32 39 -26 39 C-26 36.69 -26 34.38 -26 32 C-26.66 32 -27.32 32 -28 32 C-28 37.94 -28 43.88 -28 50 C-30 48 -30 48 -30.1953125 45.1796875 C-30.17210938 44.08914062 -30.14890625 42.99859375 -30.125 41.875 C-30.10695313 40.77929688 -30.08890625 39.68359375 -30.0703125 38.5546875 C-30.04710938 37.71164063 -30.02390625 36.86859375 -30 36 C-31.98 36 -33.96 36 -36 36 C-36.02886751 31.85418113 -36.04675327 27.70838784 -36.0625 23.5625 C-36.07087891 22.37849609 -36.07925781 21.19449219 -36.08789062 19.97460938 C-36.09111328 18.84990234 -36.09433594 17.72519531 -36.09765625 16.56640625 C-36.10289307 15.52427979 -36.10812988 14.48215332 -36.11352539 13.40844727 C-36 11 -36 11 -35 10 C-32.85441173 9.91224395 -30.70595579 9.89304781 -28.55859375 9.90234375 C-27.25341797 9.90556641 -25.94824219 9.90878906 -24.60351562 9.91210938 C-23.2148431 9.92046599 -21.82617123 9.92893095 -20.4375 9.9375 C-19.04492344 9.94251334 -17.65234519 9.94707653 -16.25976562 9.95117188 C-12.8398013 9.96300566 -9.41992156 9.9794912 -6 10 C-6 9.34 -6 8.68 -6 8 C-7.918125 8.0309375 -7.918125 8.0309375 -9.875 8.0625 C-13.75 8.125 -13.75 8.125 -16 7 C-15.67 5.35 -15.34 3.7 -15 2 C-10.05 2 -5.1 2 0 2 C0 1.34 0 0.68 0 0 Z" transform="translate(105,46)"/><path fill="#E1E6FF" d="M0 0 C0.33 0.99 0.66 1.98 1 3 C0.01 3 -0.98 3 -2 3 C-2 3.66 -2 4.32 -2 5 C-1.38125 4.814375 -0.7625 4.62875 -0.125 4.4375 C2 4 2 4 4 5 C4 4.34 4 3.68 4 3 C3.34 2.67 2.68 2.34 2 2 C5.61973402 0.68373308 8.09567131 0 12 0 C12 4.95 12 9.9 12 15 C10.68 15 9.36 15 8 15 C7.67 14.01 7.34 13.02 7 12 C4.45048953 10.53159883 4.45048953 10.53159883 1.4375 9.3125 C0.42558594 8.87550781 -0.58632812 8.43851563 -1.62890625 7.98828125 C-2.41136719 7.66214844 -3.19382812 7.33601563 -4 7 C-3.67 5.68 -3.34 4.36 -3 3 C-3.8971875 3.309375 -3.8971875 3.309375 -4.8125 3.625 C-7 4 -7 4 -10 2 C-6.49223216 0.39644899 -3.85645121 -0.22036864 0 0 Z" transform="translate(117,65)"/><path fill="#F9FAFF" d="M0 0 C0.66 0.99 1.32 1.98 2 3 C1.01 3 0.02 3 -1 3 C-1 3.66 -1 4.32 -1 5 C0.32 4.67 1.64 4.34 3 4 C3.33 4.99 3.66 5.98 4 7 C3.01 7 2.02 7 1 7 C1 7.66 1 8.32 1 9 C2.32 8.67 3.64 8.34 5 8 C5 8.66 5 9.32 5 10 C5.66 10.33 6.32 10.66 7 11 C5.68 11 4.36 11 3 11 C3 11.66 3 12.32 3 13 C6.3 13 9.6 13 13 13 C13 12.34 13 11.68 13 11 C11.35 11 9.7 11 8 11 C8.99 10.67 9.98 10.34 11 10 C11 9.01 11 8.02 11 7 C10.34 7 9.68 7 9 7 C8.67 7.66 8.34 8.32 8 9 C8 8.34 8 7.68 8 7 C7.01 6.67 6.02 6.34 5 6 C5 4.35 5 2.7 5 1 C7.64 0.67 10.28 0.34 13 0 C13.33 0.99 13.66 1.98 14 3 C13.01 3 12.02 3 11 3 C11 3.66 11 4.32 11 5 C12.32 4.67 13.64 4.34 15 4 C15.33 4.99 15.66 5.98 16 7 C15.01 7 14.02 7 13 7 C13 7.99 13 8.98 13 10 C13.66 10 14.32 10 15 10 C15 11.65 15 13.3 15 15 C10.38 15 5.76 15 1 15 C0.67 13.35 0.34 11.7 0 10 C-1.96758273 8.63979849 -1.96758273 8.63979849 -4 8 C-3.67 6.35 -3.34 4.7 -3 3 C-3.66 2.67 -4.32 2.34 -5 2 C-3.35 1.34 -1.7 0.68 0 0 Z M7 3 C6.67 3.66 6.34 4.32 6 5 C6.99 5 7.98 5 9 5 C9 4.34 9 3.68 9 3 C8.34 3 7.68 3 7 3 Z" transform="translate(92,65)"/><path fill="#718AFF" d="M0 0 C2.25682026 1.77449192 2.9470039 2.63187653 3.36328125 5.5234375 C3.34652344 6.46445313 3.32976562 7.40546875 3.3125 8.375 C3.30863281 9.31085938 3.30476563 10.24671875 3.30078125 11.2109375 C2.98381645 14.15006567 2.09474206 16.26943647 1 19 C0.72123482 21.0959986 0.51411256 23.20262611 0.375 25.3125 C0.30023438 26.38113281 0.22546875 27.44976562 0.1484375 28.55078125 C0.09945312 29.35902344 0.05046875 30.16726562 0 31 C-0.33 31 -0.66 31 -1 31 C-1 29.35 -1 27.7 -1 26 C-4.96 26 -8.92 26 -13 26 C-13 27.98 -13 29.96 -13 32 C-13.99 32 -14.98 32 -16 32 C-15.95359375 31.28714844 -15.9071875 30.57429688 -15.859375 29.83984375 C-15.51456953 23.24262799 -15.51456953 23.24262799 -18 17.3125 C-20.61334198 12.98415234 -20.74527 10.96846664 -20 6 C-17.5 4 -17.5 4 -15 3 C-15 3.66 -15 4.32 -15 5 C-15.66 5 -16.32 5 -17 5 C-17.51454405 11.43180066 -16.96076545 14.67772142 -13 20 C-13 21.32 -13 22.64 -13 24 C-9.7 23.67 -6.4 23.34 -3 23 C-1.31438733 17.78556404 -0.61487302 13.02460865 -0.375 7.5625 C-0.33632812 6.83095703 -0.29765625 6.09941406 -0.2578125 5.34570312 C-0.16466016 3.56416468 -0.08129714 1.78211878 0 0 Z" transform="translate(123,79)"/><path fill="#2D2D2D" d="M0 0 C0.66 0.33 1.32 0.66 2 1 C2 5.29 2 9.58 2 14 C-4.0546875 14.9765625 -4.0546875 14.9765625 -6 15 C-8 13 -8 13 -8.25 9.5 C-8 6 -8 6 -6 4 C-4.68 4 -3.36 4 -2 4 C-1.34 2.68 -0.68 1.36 0 0 Z" transform="translate(132,113)"/><path fill="#212121" d="M0 0 C0 3.3 0 6.6 0 10 C-6.42548263 11.33359073 -6.42548263 11.33359073 -8.9375 9.875 C-10.36066991 7.36352369 -10.42674516 5.84496772 -10 3 C-7.65127184 -1.00665392 -4.23309225 -0.239609 0 0 Z" transform="translate(94,117)"/><path fill="#708AFF" d="M0 0 C0 7.92 0 15.84 0 24 C-0.33 24 -0.66 24 -1 24 C-1.33 16.74 -1.66 9.48 -2 2 C-31.205 1.505 -31.205 1.505 -61 1 C-61 0.67 -61 0.34 -61 0 C-53.48966686 -0.15385097 -45.97924006 -0.30203198 -38.46865368 -0.4429636 C-34.98123739 -0.50858132 -31.49388185 -0.57615583 -28.0065918 -0.64819336 C-23.99798175 -0.73091428 -19.98925365 -0.80513999 -15.98046875 -0.87890625 C-14.72727341 -0.90594131 -13.47407806 -0.93297638 -12.1829071 -0.96083069 C-10.44144157 -0.99097511 -10.44144157 -0.99097511 -8.66479492 -1.02172852 C-7.64109299 -1.04171402 -6.61739105 -1.06169952 -5.56266785 -1.08229065 C-3 -1 -3 -1 0 0 Z" transform="translate(132,57)"/><path fill="#1F1F1F" d="M0 0 C2.84665843 0.55544555 4.7628501 0.12214442 7.5625 -0.5 C8.5625 0.5 8.5625 0.5 8.66015625 2.56640625 C8.64855469 3.39011719 8.63695313 4.21382813 8.625 5.0625 C8.61597656 5.88878906 8.60695313 6.71507813 8.59765625 7.56640625 C8.58605469 8.20449219 8.57445313 8.84257813 8.5625 9.5 C7.9025 9.5 7.2425 9.5 6.5625 9.5 C6.2325 7.19 5.9025 4.88 5.5625 2.5 C4.9025 2.5 4.2425 2.5 3.5625 2.5 C3.2325 4.81 2.9025 7.12 2.5625 9.5 C1.5725 9.5 0.5825 9.5 -0.4375 9.5 C-0.4375 6.86 -0.4375 4.22 -0.4375 1.5 C-1.4275 1.83 -2.4175 2.16 -3.4375 2.5 C-3.7675 4.81 -4.0975 7.12 -4.4375 9.5 C-5.0975 9.5 -5.7575 9.5 -6.4375 9.5 C-6.4375 6.53 -6.4375 3.56 -6.4375 0.5 C-2.4375 -0.5 -2.4375 -0.5 0 0 Z" transform="translate(73.4375,117.5)"/><path fill="#94A7FF" d="M0 0 C2 3 2 3 2 6 C3.65 6.33 5.3 6.66 7 7 C7 7.99 7 8.98 7 10 C7.66 10.33 8.32 10.66 9 11 C9 11.66 9 12.32 9 13 C5.7 13 2.4 13 -1 13 C-1 12.34 -1 11.68 -1 11 C-0.34 10.67 0.32 10.34 1 10 C-0.32 9.67 -1.64 9.34 -3 9 C-3 8.34 -3 7.68 -3 7 C-2.34 6.67 -1.68 6.34 -1 6 C-2.32 5.67 -3.64 5.34 -5 5 C-5 4.34 -5 3.68 -5 3 C-2.5 1.375 -2.5 1.375 0 0 Z M3 3 C3.66 3 4.32 3 5 3 C5 3.66 5 4.32 5 5 C4.01 4.67 3.02 4.34 2 4 C2.33 3.67 2.66 3.34 3 3 Z" transform="translate(96,65)"/><path fill="#131313" d="M0 0 C2.4375 0.8125 2.4375 0.8125 4.4375 2.8125 C4.4375 3.8025 4.4375 4.7925 4.4375 5.8125 C2.1275 5.8125 -0.1825 5.8125 -2.5625 5.8125 C-2.2325 6.4725 -1.9025 7.1325 -1.5625 7.8125 C0.0875 7.8125 1.7375 7.8125 3.4375 7.8125 C3.4375 8.4725 3.4375 9.1325 3.4375 9.8125 C-2.00986842 11.14407895 -2.00986842 11.14407895 -4.4375 9.6875 C-5.94207373 7.17987712 -5.9943188 5.69129197 -5.5625 2.8125 C-3.86282344 0.12880016 -3.19877434 -0.23405666 0 0 Z" transform="translate(112.5625,117.1875)"/><path fill="#151515" d="M0 0 C2.4375 0.8125 2.4375 0.8125 4.4375 2.8125 C4.4375 3.8025 4.4375 4.7925 4.4375 5.8125 C2.1275 6.1425 -0.1825 6.4725 -2.5625 6.8125 C-0.48696352 7.3659764 1.28115964 7.8125 3.4375 7.8125 C3.4375 8.4725 3.4375 9.1325 3.4375 9.8125 C-2.00986842 11.14407895 -2.00986842 11.14407895 -4.4375 9.6875 C-5.94207373 7.17987712 -5.9943188 5.69129197 -5.5625 2.8125 C-3.86282344 0.12880016 -3.19877434 -0.23405666 0 0 Z" transform="translate(55.5625,117.1875)"/><path fill="#1F1F1F" d="M0 0 C0.66 0 1.32 0 2 0 C2.66 1.65 3.32 3.3 4 5 C4.66 4.01 5.32 3.02 6 2 C6.66 2 7.32 2 8 2 C8.33 2.66 8.66 3.32 9 4 C10.32 2.68 11.64 1.36 13 0 C12.53199289 4.05606165 12.12046792 7.46588679 10 11 C8 10 8 10 7 7 C6.01 8.485 6.01 8.485 5 10 C4.34 10 3.68 10 3 10 C0 3.375 0 3.375 0 0 Z" transform="translate(35,117)"/><path fill="#0E0E0E" d="M0 0 C3.125 0.375 3.125 0.375 6 1 C6.33 2.65 6.66 4.3 7 6 C4.69 6 2.38 6 0 6 C0.33 6.66 0.66 7.32 1 8 C2.65 8 4.3 8 6 8 C5.67 8.99 5.34 9.98 5 11 C-0.875 10.125 -0.875 10.125 -2 9 C-2.1875 5.5625 -2.1875 5.5625 -2 2 C-1.34 1.34 -0.68 0.68 0 0 Z" transform="translate(138,117)"/><path fill="#5573FF" d="M0 0 C0.33 0 0.66 0 1 0 C1 7.59 1 15.18 1 23 C-0.98 23 -2.96 23 -5 23 C-5 26.3 -5 29.6 -5 33 C-5.33 33 -5.66 33 -6 33 C-6.33 28.71 -6.66 24.42 -7 20 C-7.33 20 -7.66 20 -8 20 C-8.33 21.98 -8.66 23.96 -9 26 C-9.33 26 -9.66 26 -10 26 C-10 23.03 -10 20.06 -10 17 C-8.35 17.33 -6.7 17.66 -5 18 C-5 18.99 -5 19.98 -5 21 C-3.35 21 -1.7 21 0 21 C0 14.07 0 7.14 0 0 Z" transform="translate(130,59)"/><path fill="#7089FF" d="M0 0 C0.66 0 1.32 0 2 0 C1.67 1.32 1.34 2.64 1 4 C-3.95 4 -8.9 4 -14 4 C-14 4.66 -14 5.32 -14 6 C-11.03 6 -8.06 6 -5 6 C-4.67 6.66 -4.34 7.32 -4 8 C-4.66 8.66 -5.32 9.32 -6 10 C-6 9.34 -6 8.68 -6 8 C-7.27875 8.020625 -8.5575 8.04125 -9.875 8.0625 C-13.75 8.125 -13.75 8.125 -16 7 C-15.67 5.35 -15.34 3.7 -15 2 C-10.05 2 -5.1 2 0 2 C0 1.34 0 0.68 0 0 Z" transform="translate(105,46)"/><path fill="#C7D1FF" d="M0 0 C0.99 0.33 1.98 0.66 3 1 C4.99673484 1.35236497 6.99650739 1.68834559 9 2 C8.75 4.375 8.75 4.375 8 7 C6.66666667 7.66666667 5.33333333 8.33333333 4 9 C3.18828772 11.55519921 3.18828772 11.55519921 3 14 C2.67 14 2.34 14 2 14 C2 12.35 2 10.7 2 9 C1.34 9 0.68 9 0 9 C0 8.01 0 7.02 0 6 C0.66 5.67 1.32 5.34 2 5 C0.68 4.67 -0.64 4.34 -2 4 C-2 2 -2 2 0 0 Z" transform="translate(105,66)"/><path fill="#111" d="M0 0 C0.66 0 1.32 0 2 0 C2.33 1.98 2.66 3.96 3 6 C3.45375 5.505 3.9075 5.01 4.375 4.5 C6 3 6 3 8 3 C8 3.99 8 4.98 8 6 C7.01 6.495 7.01 6.495 6 7 C6.66 8.98 7.32 10.96 8 13 C6 12 4 11 2 10 C2 10.99 2 11.98 2 13 C1.34 13 0.68 13 0 13 C0 8.71 0 4.42 0 0 Z" transform="translate(97,114)"/><path fill="#313131" d="M0 0 C0 0.66 0 1.32 0 2 C-1.65 1.67 -3.3 1.34 -5 1 C-5 1.66 -5 2.32 -5 3 C-3.35 3.33 -1.7 3.66 0 4 C0.042721 5.66611905 0.04063832 7.33382885 0 9 C-1 10 -1 10 -3.5625 10.0625 C-4.366875 10.041875 -5.17125 10.02125 -6 10 C-6.33 9.01 -6.66 8.02 -7 7 C-4.525 7.495 -4.525 7.495 -2 8 C-2 7.34 -2 6.68 -2 6 C-4.475 5.01 -4.475 5.01 -7 4 C-7 2.68 -7 1.36 -7 0 C-4.3333581 -1.33332095 -2.83319697 -0.67102033 0 0 Z" transform="translate(165,118)"/><path fill="#778FFF" d="M0 0 C3.07536854 0.65900754 5.07735566 1.53867783 8 3 C7.67 6.3 7.34 9.6 7 13 C6.67 13 6.34 13 6 13 C5.67 10.36 5.34 7.72 5 5 C4.67 7.64 4.34 10.28 4 13 C3.34 13 2.68 13 2 13 C1.93941406 12.22914062 1.87882812 11.45828125 1.81640625 10.6640625 C1.73261719 9.66117188 1.64882812 8.65828125 1.5625 7.625 C1.48128906 6.62726563 1.40007812 5.62953125 1.31640625 4.6015625 C1.15034374 2.02072387 1.15034374 2.02072387 0 0 Z" transform="translate(113,72)"/><path fill="#202020" d="M0 0 C0.66 0 1.32 0 2 0 C2.66 1.65 3.32 3.3 4 5 C5.65 3.35 7.3 1.7 9 0 C8.48964169 4.3890815 7.47785723 7.33708062 5 11 C2.65808437 8.8709858 1.16445046 6.95591271 0 4 C0 2.68 0 1.36 0 0 Z" transform="translate(147,117)"/><path fill="#8CA1FF" d="M0 0 C2.13974329 1.71519105 2.93224944 2.60080306 3.3984375 5.34765625 C3.34069933 12.03566141 2.29027182 17.71538507 0 24 C-2.11482713 20.51675532 -2.11482713 20.51675532 -1.57836914 18.10253906 C-1.38750732 17.40870117 -1.19664551 16.71486328 -1 16 C-0.77609683 13.24682026 -0.58606338 10.50694671 -0.4375 7.75 C-0.39431641 7.00492187 -0.35113281 6.25984375 -0.30664062 5.4921875 C-0.20103275 3.661651 -0.10005799 1.83084824 0 0 Z" transform="translate(123,79)"/><path fill="#B4C1FF" d="M0 0 C1.32 0.33 2.64 0.66 4 1 C3.01 1 2.02 1 1 1 C1 1.66 1 2.32 1 3 C3.97065509 2.65772428 3.97065509 2.65772428 7 2 C7.33 1.34 7.66 0.68 8 0 C8 2.31 8 4.62 8 7 C5.36 7 2.72 7 0 7 C0 4.69 0 2.38 0 0 Z" transform="translate(80,135)"/><path fill="#BAC7FF" d="M0 0 C1.33841672 0.31229724 2.67139075 0.64830932 4 1 C4.99 1 5.98 1 7 1 C7 2.32 7 3.64 7 5 C4.69 5 2.38 5 0 5 C-0.5625 3.0625 -0.5625 3.0625 -1 1 C-0.67 0.67 -0.34 0.34 0 0 Z" transform="translate(95,137)"/><path fill="#E3E8FF" d="M0 0 C0.99 0 1.98 0 3 0 C4.35439668 2.70879335 4.06501451 5.00933268 4 8 C2.68 8 1.36 8 0 8 C-0.79953138 4.71303767 -1.09658936 3.28976808 0 0 Z" transform="translate(125,72)"/><path fill="#FEFEFF" d="M0 0 C0.33 0 0.66 0 1 0 C1 2.97 1 5.94 1 9 C0.67 8.34 0.34 7.68 0 7 C-0.99 7 -1.98 7 -3 7 C-3.33 7.99 -3.66 8.98 -4 10 C-4 9.01 -4 8.02 -4 7 C-4.99 6.67 -5.98 6.34 -7 6 C-6.34 5.34 -5.68 4.68 -5 4 C-5 4.66 -5 5.32 -5 6 C-4.01 6 -3.02 6 -2 6 C-2 4.68 -2 3.36 -2 2 C-1.34 2 -0.68 2 0 2 C0 1.34 0 0.68 0 0 Z M-7 10 C-4 11 -4 11 -4 11 Z" transform="translate(128,65)"/><path fill="#A2B2FF" d="M0 0 C2.64 0 5.28 0 8 0 C7.67 1.65 7.34 3.3 7 5 C4.33333333 5 1.66666667 5 -1 5 C-0.67 3.35 -0.34 1.7 0 0 Z" transform="translate(138,137)"/><path fill="#FCFDFF" d="M0 0 C0.33 0.99 0.66 1.98 1 3 C0.01 3 -0.98 3 -2 3 C-2 3.99 -2 4.98 -2 6 C-1.34 6.33 -0.68 6.66 0 7 C-1.32 6.67 -2.64 6.34 -4 6 C-3.67 5.01 -3.34 4.02 -3 3 C-3.8971875 3.309375 -3.8971875 3.309375 -4.8125 3.625 C-7 4 -7 4 -10 2 C-6.49223216 0.39644899 -3.85645121 -0.22036864 0 0 Z" transform="translate(117,65)"/><path fill="#6A84FF" d="M0 0 C0.66 0.33 1.32 0.66 2 1 C1.67 4.63 1.34 8.26 1 12 C0.34 12 -0.32 12 -1 12 C-1 9.03 -1 6.06 -1 3 C-1.99 2.67 -2.98 2.34 -4 2 C-2.125 0.9375 -2.125 0.9375 0 0 Z" transform="translate(112,73)"/><path fill="#EBEEFF" d="M0 0 C2 1.1875 2 1.1875 4 3 C4 4.65 4 6.3 4 8 C0.04 7.67 -3.92 7.34 -8 7 C-8 6.67 -8 6.34 -8 6 C-4.7 6 -1.4 6 2 6 C2 5.34 2 4.68 2 4 C0.35 4 -1.3 4 -3 4 C-2.01 3.67 -1.02 3.34 0 3 C0 2.01 0 1.02 0 0 Z" transform="translate(103,72)"/><path fill="#EAEAEA" d="M0 0 C2.0625 0.4375 2.0625 0.4375 4 1 C4 2.65 4 4.3 4 6 C2.35 6 0.7 6 -1 6 C-1.042721 4.33388095 -1.04063832 2.66617115 -1 1 C-0.67 0.67 -0.34 0.34 0 0 Z" transform="translate(127,119)"/><path fill="#E7E7E7" d="M0 0 C1.67542976 0.28604898 3.34385343 0.61781233 5 1 C4.67 2.32 4.34 3.64 4 5 C2.68 5 1.36 5 0 5 C-0.5625 3.0625 -0.5625 3.0625 -1 1 C-0.67 0.67 -0.34 0.34 0 0 Z" transform="translate(87,120)"/><path fill="#171717" d="M0 0 C0.66 0 1.32 0 2 0 C2.66 1.65 3.32 3.3 4 5 C4.66 5 5.32 5 6 5 C5.67 6.65 5.34 8.3 5 10 C4.34 10 3.68 10 3 10 C0 3.375 0 3.375 0 0 Z" transform="translate(35,117)"/><path fill="#5C5C5C" d="M0 0 C2.4375 0.375 2.4375 0.375 5 1 C5.33 1.66 5.66 2.32 6 3 C5.67 3.66 5.34 4.32 5 5 C3.02 5 1.04 5 -1 5 C-0.67 3.35 -0.34 1.7 0 0 Z" transform="translate(53,117)"/><path fill="#5E5E5E" d="M0 0 C2.4375 0.375 2.4375 0.375 5 1 C5.33 1.66 5.66 2.32 6 3 C5.67 3.66 5.34 4.32 5 5 C3.02 5 1.04 5 -1 5 C-0.67 3.35 -0.34 1.7 0 0 Z" transform="translate(110,117)"/><path fill="#6681FF" d="M0 0 C0.33 0.99 0.66 1.98 1 3 C4.3 3 7.6 3 11 3 C11.33 3.66 11.66 4.32 12 5 C11.34 5.66 10.68 6.32 10 7 C10 6.34 10 5.68 10 5 C8.72125 5.020625 7.4425 5.04125 6.125 5.0625 C2.25 5.125 2.25 5.125 0 4 C0 2.68 0 1.36 0 0 Z" transform="translate(89,49)"/><path fill="#E2E2E2" d="M0 0 C0.33 2.31 0.66 4.62 1 7 C0.34 7 -0.32 7 -1 7 C-1 7.66 -1 8.32 -1 9 C-3 8 -3 8 -4.125 4.9375 C-4.41375 3.968125 -4.7025 2.99875 -5 2 C-1.125 0 -1.125 0 0 0 Z" transform="translate(107,119)"/><path fill="#1A1A1A" d="M0 0 C0 0.66 0 1.32 0 2 C-1.65 1.67 -3.3 1.34 -5 1 C-4.34 2.32 -3.68 3.64 -3 5 C-4.32 4.67 -5.64 4.34 -7 4 C-7 2.68 -7 1.36 -7 0 C-4.3333581 -1.33332095 -2.83319697 -0.67102033 0 0 Z" transform="translate(165,118)"/><path fill="#030303" d="M0 0 C1.98 0 3.96 0 6 0 C5.01 0.66 4.02 1.32 3 2 C2.26393501 5.56769552 2.26393501 5.56769552 2 9 C1.34 9 0.68 9 0 9 C0 6.03 0 3.06 0 0 Z" transform="translate(67,118)"/><path fill="#B6C3FF" d="M0 0 C1.32 0 2.64 0 4 0 C3.67 1.65 3.34 3.3 3 5 C2.01 5.33 1.02 5.66 0 6 C0 4.02 0 2.04 0 0 Z" transform="translate(127,137)"/><path fill="#B2C0FF" d="M0 0 C1.32 0 2.64 0 4 0 C3.67 1.65 3.34 3.3 3 5 C2.01 5.33 1.02 5.66 0 6 C0 4.02 0 2.04 0 0 Z" transform="translate(60,137)"/><path fill="#0A0A0A" d="M0 0 C0.33 0 0.66 0 1 0 C1 2.97 1 5.94 1 9 C-0.32 8.67 -1.64 8.34 -3 8 C-2.01 5.36 -1.02 2.72 0 0 Z" transform="translate(93,118)"/><path fill="#BFCAFF" d="M0 0 C0.66 0.99 1.32 1.98 2 3 C1.67 3.66 1.34 4.32 1 5 C-0.98 5 -2.96 5 -5 5 C-5 4.34 -5 3.68 -5 3 C-2.5 1.375 -2.5 1.375 0 0 Z" transform="translate(96,65)"/><path fill="#AFBEFF" d="M0 0 C1.65 0 3.3 0 5 0 C4.34 1.65 3.68 3.3 3 5 C2.01 4.67 1.02 4.34 0 4 C0 2.68 0 1.36 0 0 Z" transform="translate(132,137)"/><path fill="#212121" d="M0 0 C0.66 0.66 1.32 1.32 2 2 C4.58354218 2.16687448 4.58354218 2.16687448 7 2 C7 2.66 7 3.32 7 4 C5.02 4.33 3.04 4.66 1 5 C0.34 4.01 -0.32 3.02 -1 2 C-0.67 1.34 -0.34 0.68 0 0 Z" transform="translate(109,123)"/><path fill="#1D1D1D" d="M0 0 C2.64 0.33 5.28 0.66 8 1 C7.67 1.99 7.34 2.98 7 4 C4.03 3.505 4.03 3.505 1 3 C0.67 2.01 0.34 1.02 0 0 Z" transform="translate(136,124)"/><path fill="#858585" d="M0 0 C1.32 0.33 2.64 0.66 4 1 C4.33 2.32 4.66 3.64 5 5 C3.35 5 1.7 5 0 5 C0 3.33333333 0 1.66666667 0 0 Z" transform="translate(138,117)"/><path fill="#3A3A3A" d="M0 0 C2.31 0 4.62 0 7 0 C5.515 1.98 5.515 1.98 4 4 C2.68 3.67 1.36 3.34 0 3 C0 2.01 0 1.02 0 0 Z" transform="translate(87,117)"/><path fill="#5F7BFF" d="M0 0 C2.475 0.495 2.475 0.495 5 1 C4.34 1.66 3.68 2.32 3 3 C2.67 3 2.34 3 2 3 C1.67 4.98 1.34 6.96 1 9 C0.67 9 0.34 9 0 9 C0 6.03 0 3.06 0 0 Z" transform="translate(120,76)"/></svg>